<?xml version="1.0" encoding="utf-8"?>
<!-- Generator: Adobe Illustrator 18.1.1, SVG Export Plug-In . SVG Version: 6.00 Build 0)  -->
<svg version="1.2" baseProfile="tiny" id="Layer_1" xmlns="http://www.w3.org/2000/svg" xmlns:xlink="http://www.w3.org/1999/xlink"
	 x="0px" y="0px" viewBox="0 0 102.1 102.1" xml:space="preserve">
<g>
	
		<line fill="none" stroke="#000000" stroke-linecap="round" stroke-linejoin="round" stroke-miterlimit="10" x1="51.7" y1="83.7" x2="50.4" y2="83.7"/>
	<path fill="none" stroke="#000000" stroke-linecap="round" stroke-miterlimit="10" d="M24.6,14.4h53l0.2-0.5
		c0,0-7.5-12.7-26.4-13.4c0,0-16.2-1.1-27.2,13.4L24.6,14.4z"/>
	<path fill="none" stroke="#000000" stroke-linecap="round" stroke-miterlimit="10" d="M30.2,14.4c0,0-11.8,7.1-15.5,19.7l1,0.3
		h70.6l1-0.4c0,0-3.5-12.2-15.4-19.6"/>
	<path fill="none" stroke="#000000" stroke-linecap="round" stroke-miterlimit="10" d="M53.1,34.4v49.3c0,0-0.9,6.1,7.8,7.8l18,3.5
		c0,0,0.3,0.1,0.3,0.2v0.4h-0.6c0,0,0,0.7-0.5,1.1c0,0-1.1,1-1.3,1.3c0,0-3.9,3.3-4.4,3.4c0,0-0.3,0.1-0.8,0.1H52.6c0,0-1.4,0-1.4,0
		H30.6c-0.5,0-0.8-0.1-0.8-0.1c-0.6-0.1-4.4-3.4-4.4-3.4c-0.2-0.2-1.3-1.3-1.3-1.3c-0.5-0.5-0.5-1.1-0.5-1.1h-0.6v-0.4
		c0-0.2,0.3-0.2,0.3-0.2l18-3.5c8.7-1.7,7.8-7.8,7.8-7.8V34.4"/>
	<line fill="none" stroke="#000000" stroke-linecap="round" stroke-miterlimit="10" x1="49" y1="83.7" x2="53.1" y2="83.7"/>
	<line fill="none" stroke="#000000" stroke-linecap="round" stroke-miterlimit="10" x1="41.2" y1="91.5" x2="60.8" y2="91.5"/>
	<line fill="none" stroke="#000000" stroke-linecap="round" stroke-miterlimit="10" x1="23.5" y1="95.7" x2="78.6" y2="95.7"/>
</g>
</svg>
