<?xml version="1.0" encoding="utf-8"?>
<!-- Generator: Adobe Illustrator 18.1.1, SVG Export Plug-In . SVG Version: 6.00 Build 0)  -->
<svg version="1.2" baseProfile="tiny" id="Layer_1" xmlns="http://www.w3.org/2000/svg" xmlns:xlink="http://www.w3.org/1999/xlink"
	 x="0px" y="0px" viewBox="0 0 102.1 102.1" xml:space="preserve">
<g>
	<path fill="none" stroke="#000000" stroke-linecap="round" stroke-miterlimit="10" d="M24.5,81.5h53.2l0.2-0.5
		c0,0-7.5-12.8-26.4-13.4c0,0-16.3-1.1-27.3,13.4L24.5,81.5z"/>
	<path fill="none" stroke="#000000" stroke-linecap="round" stroke-miterlimit="10" d="M30.1,81.5c0,0-11.8,7.2-15.5,19.7l1,0.3
		h70.8l1-0.4c0,0-3.5-12.2-15.5-19.7"/>
	<line fill="none" stroke="#000000" stroke-miterlimit="10" x1="51" y1="67.6" x2="51" y2="9.1"/>
	<path fill="none" stroke="#000000" stroke-linecap="round" stroke-linejoin="round" stroke-miterlimit="10" d="M50.6,9.1L50.6,9.1
		h0.3h0.2h0.2h0.1 M51.4,9.1L51.4,9.1l0.1,0l0.3,0L52,9l0.3,0l0.3,0l0.3,0l0.3,0l0.2,0l0.2,0l0.2-0.1L54,8.7l0.2-0.1l0.2-0.1
		l0.2-0.1L55,8.4l0.2-0.1l0.2-0.1l0.2-0.1l0.2-0.1L56,8l0.2-0.1l0.2-0.1l0.2-0.1l0.2-0.1l0.2-0.1L57,7.3l0.2-0.1l0.2-0.1l0.2-0.1
		l0.2-0.1l0.2-0.1L58,6.5l0.1-0.1l0.1-0.1l0.1-0.1L58.5,6l0.1-0.1l0.1-0.1l0.1-0.2l0.1-0.2l0.1-0.2L59.2,5l0.1-0.2l0.1-0.2l0.1-0.2
		l0.1-0.2l0.1-0.2L59.7,4l0.1-0.2l0.1-0.2l0.1-0.2L60,3.3L60,3.1l0.1-0.2l0.1-0.2l0-0.2l0-0.2l0-0.2l0-0.2l0-0.2l0-0.2l0-0.2l0-0.2
		l0-0.2l0-0.2H41.7L41.6,1l0,0.2l0,0.2l0,0.2l0,0.2l0,0.2l0,0.2l0,0.2l0.1,0.2L42,3L42,3.2l0.1,0.2l0.1,0.2l0.1,0.2L42.3,4l0.1,0.2
		l0.1,0.2l0.1,0.2l0.1,0.2l0.1,0.2L42.8,5l0.1,0.2l0.1,0.2l0.1,0.2l0.1,0.2l0.1,0.2L43.6,6l0.1,0.2l0.1,0.2L44,6.5l0.1,0.1l0.2,0.1
		l0.2,0.1L44.6,7l0.2,0.1l0.2,0.1l0.2,0.1l0.2,0.1l0.2,0.1l0.2,0.1l0.2,0.1L46.1,8l0.2,0.1l0.2,0.1l0.2,0.1L47,8.4l0.2,0.1l0.2,0.1
		l0.2,0.1L48,8.7l0.2,0.1l0.2,0.1l0.2,0l0.2,0l0.2,0l0.2,0l0.2,0l0.2,0L50,9l0.2,0l0.2,0l0.1,0h0.1"/>
</g>
</svg>
