<?xml version="1.0" encoding="utf-8"?>
<!-- Generator: Adobe Illustrator 18.1.1, SVG Export Plug-In . SVG Version: 6.00 Build 0)  -->
<svg version="1.2" baseProfile="tiny" id="Layer_1" xmlns="http://www.w3.org/2000/svg" xmlns:xlink="http://www.w3.org/1999/xlink"
	 x="0px" y="0px" viewBox="0 0 61.4 61.4" xml:space="preserve">
<g>
	<g>
		<path fill="none" stroke="#000000" stroke-miterlimit="10" d="M51.5,45c-3.2,2.8-13.6-1.2-23.1-10.2c-9.4-9-15-18.7-11.3-22.4
			c3.3-3.3,14.1,1.8,23.6,10.8C50,32.2,54.8,41.9,51.5,45z"/>
		<path fill="none" stroke="#000000" stroke-miterlimit="10" d="M8.8,5.3c0,0-13.7,18.1,8,39.7c3.1,2.7,12.6,11.5,25.4,12.7
			c4.4,0.5,7-0.1,10.7-1.5c3.1-1.3,5.4-3,6-3.4"/>
		<path fill="none" stroke="#000000" stroke-miterlimit="10" d="M12.3,39.9L1,52.1c0,0-1.2,1.3,0.2,1.9c1.4,0.6,6.3,2.3,18.4,1.6
			c2.2-0.1,6-0.5,6.7-1.6c0.5-0.6,0.9-1.3,0.9-1.3"/>
	</g>
	<path fill="none" stroke="#000000" stroke-miterlimit="10" d="M59.4,52.5c-4.5,4-20.7-1.6-34.5-14.7C11.2,24.7,4,10.1,9.2,4.9
		c4.7-4.7,20.5,2.9,34.2,16C57.1,34,64.2,48.2,59.4,52.5z"/>
</g>
</svg>
