<?xml version="1.0" encoding="utf-8"?>
<!-- Generator: Adobe Illustrator 18.1.1, SVG Export Plug-In . SVG Version: 6.00 Build 0)  -->
<svg version="1.2" baseProfile="tiny" id="Layer_1" xmlns="http://www.w3.org/2000/svg" xmlns:xlink="http://www.w3.org/1999/xlink"
	 x="0px" y="0px" viewBox="0 0 55.2 55.2" xml:space="preserve">
<path id="XMLID_18_" fill="none" stroke="#000000" stroke-miterlimit="10" d="M33.1,43.5c0,0-0.1,5.7,0,7.1c0.1,1.4-1.7,2.4-3,2.7
	c-1.4,0.4-0.5,1.4-2.4,1.4c-2,0-1-1-2.4-1.4c-1.3-0.4-3.1-1.4-3-2.7c0.1-1.4,0-7.1,0-7.1"/>
<path id="XMLID_17_" fill="none" stroke="#000000" stroke-miterlimit="10" d="M20.9,50.9"/>
<path id="XMLID_16_" fill="none" stroke="#000000" stroke-miterlimit="10" d="M27.5,44.5c0,0-2.9-0.1-4.9-0.9
	c-1-0.4-1.7-0.9-1.8-1.7c0-6.9,0-14.6-6.2-22.9h13.1h-0.1h13.1c-6.2,8.3-6.2,16-6.2,22.9c-0.1,0.8-0.8,1.3-1.8,1.7
	c-2,0.8-4.9,0.9-4.9,0.9H27.5z"/>
<g id="XMLID_6_">
	<path id="XMLID_9_" fill="none" stroke="#000000" stroke-linecap="round" stroke-linejoin="round" stroke-miterlimit="10" d="
		M21.7,50.9c0.5,0.2,6,1.8,12-1.1"/>
	<path id="XMLID_8_" fill="none" stroke="#000000" stroke-linecap="round" stroke-linejoin="round" stroke-miterlimit="10" d="
		M21.7,48.9c0.5,0.2,6,1.8,12-1.1"/>
	<path id="XMLID_7_" fill="none" stroke="#000000" stroke-linecap="round" stroke-linejoin="round" stroke-miterlimit="10" d="
		M21.7,46.6c0.5,0.2,6,1.8,12-1.1"/>
</g>
<path id="XMLID_5_" fill="none" stroke="#000000" stroke-linecap="round" stroke-miterlimit="10" d="M27.6,6.3
	c3.5,0,15.7,0.3,13.3,0.2c-1.3,0,4.8,0.3,8,1.2c-0.4-7.4-21.3-7.2-21.3-7.2S6.7,0.4,6.3,7.7c3.2-0.9,9.3-1.3,8-1.2
	C11.9,6.6,24.1,6.3,27.6,6.3"/>
<path id="XMLID_4_" fill="none" stroke="#000000" stroke-miterlimit="10" d="M27.6,19.2h15.1c3.7-5.3,6-10.4,5.2-11.6
	c-0.4-1.2-20.3-1.4-20.3-1.4h0c0,0-19.9,0.2-20.3,1.4c-0.8,1.2,1.5,6.3,5.2,11.6H27.6"/>
</svg>
