<?xml version="1.0" encoding="utf-8"?>
<!-- Generator: Adobe Illustrator 18.1.1, SVG Export Plug-In . SVG Version: 6.00 Build 0)  -->
<svg version="1.2" baseProfile="tiny" id="Layer_1" xmlns="http://www.w3.org/2000/svg" xmlns:xlink="http://www.w3.org/1999/xlink"
	 x="0px" y="0px" viewBox="0 0 55.2 55.2" xml:space="preserve">
<path fill="none" stroke="#000000" stroke-miterlimit="10" d="M9.2,18.3c0,0-8.6,0-8.6,8.6v19.1c0,0,0,8.6,8.6,8.6h19.1
	c0,0,8.6,0,8.6-8.6V27c0,0,0-8.6-8.6-8.6H9.2z"/>
<path fill="none" stroke="#000000" stroke-miterlimit="10" d="M24.9,36.5c0,3.4-2.8,6.2-6.2,6.2s-6.2-2.8-6.2-6.2
	c0-3.4,2.8-6.2,6.2-6.2S24.9,33.1,24.9,36.5z"/>
<path d="M17.6,23.9c0-0.6,0.5-1.1,1.1-1.1c0.6,0,1.2,0.5,1.2,1.1c0,0.6-0.5,1.2-1.2,1.2C18.1,25.1,17.6,24.6,17.6,23.9"/>
<path d="M10.6,23.9c0-0.6,0.5-1.1,1.1-1.1c0.6,0,1.2,0.5,1.2,1.1c0,0.6-0.5,1.2-1.2,1.2C11.1,25.1,10.6,24.6,10.6,23.9"/>
<path d="M24.5,23.9c0-0.6,0.5-1.1,1.1-1.1c0.6,0,1.2,0.5,1.2,1.1c0,0.6-0.5,1.2-1.2,1.2C25,25.1,24.5,24.6,24.5,23.9"/>
<path fill="none" stroke="#000000" stroke-linecap="round" stroke-miterlimit="10" d="M54.7,20.7C54,9.8,45.2,1,34.3,0.5"/>
<path fill="none" stroke="#000000" stroke-linecap="round" stroke-miterlimit="10" d="M49,20.7c-0.6-7.8-6.9-14-14.7-14.5"/>
<path fill="none" stroke="#000000" stroke-linecap="round" stroke-miterlimit="10" d="M43.4,20.7c-0.6-4.7-4.4-8.4-9.1-8.9"/>
</svg>
