<?xml version="1.0" encoding="UTF-8"?>
<!DOCTYPE svg PUBLIC "-//W3C//DTD SVG 1.1//EN" "http://www.w3.org/Graphics/SVG/1.1/DTD/svg11.dtd">
<svg version="1.1" xmlns="http://www.w3.org/2000/svg" xmlns:xlink="http://www.w3.org/1999/xlink" x="0px" y="0px" width="10" height="10" viewBox="199.5, 75, 130, 135">
  <g id="Layer 1">
    <g>
      <path d="M260.503,204.408 L268.885,204.408 L266.419,207.46 L262.969,207.46 L260.503,204.408 z" fill="#1A1919"/>
      <path d="M260.503,204.408 L268.885,204.408 L266.419,207.46 L262.969,207.46 L260.503,204.408 z" fill-opacity="0" stroke="#1A1919" stroke-width="1"/>
    </g>
    <path d="M265.685,207.46 L265.685,208.414 L263.742,208.414 L263.742,207.46 L265.685,207.46 z" fill-opacity="0" stroke="#1A1919" stroke-width="1"/>
    <path d="M271.307,192.833 C271.307,193.243 271.116,193.585 270.86,193.672 L270.86,195.324 C271.116,195.411 271.307,195.753 271.307,196.162 C271.307,196.571 271.116,196.913 270.86,197 L270.86,198.653 C271.116,198.74 271.307,199.082 271.307,199.491 C271.307,199.9 271.116,200.242 270.86,200.329 L270.86,201.964 C271.116,202.059 271.307,202.406 271.307,202.82 C271.307,203.306 271.043,203.54 270.717,203.54 L269.339,204.408 L260.089,204.408 L258.568,203.442 L258.568,202.433 C258.312,202.346 258.121,202.004 258.121,201.595 C258.121,201.186 258.312,200.844 258.568,200.757 L258.568,199.105 C258.312,199.018 258.121,198.675 258.121,198.266 C258.121,197.857 258.312,197.515 258.568,197.428 L258.568,195.776 C258.312,195.689 258.121,195.347 258.121,194.938 C258.121,194.529 258.312,194.186 258.568,194.099 L258.568,192.833 C258.568,192.833 269.629,192.833 271.307,192.833 z" fill-opacity="0" stroke="#1A1919" stroke-width="1"/>
    <g>
      <path d="M270.86,200.329 L258.568,202.433 L270.86,201.964 L270.86,200.329 z" fill="#1A1919"/>
      <path d="M270.86,200.329 L258.568,202.433 L270.86,201.964 L270.86,200.329 z" fill-opacity="0" stroke="#1A1919" stroke-width="1"/>
    </g>
    <g>
      <path d="M258.121,187.75 L259.027,187.75 L259.027,192.833 L258.121,192.833 L258.121,187.75 z" fill="#1A1919"/>
      <path d="M258.121,187.75 L259.027,187.75 L259.027,192.833 L258.121,192.833 L258.121,187.75 z" fill-opacity="0" stroke="#1A1919" stroke-width="1"/>
    </g>
    <g>
      <path d="M267.489,187.75 L268.395,187.75 L268.395,192.833 L267.489,192.833 L267.489,187.75 z" fill="#1A1919"/>
      <path d="M267.489,187.75 L268.395,187.75 L268.395,192.833 L267.489,192.833 L267.489,187.75 z" fill-opacity="0" stroke="#1A1919" stroke-width="1"/>
    </g>
    <g>
      <path d="M269.587,187.75 L271.307,187.75 L271.307,192.833 L269.587,192.833 L269.587,187.75 z" fill="#1A1919"/>
      <path d="M269.587,187.75 L271.307,187.75 L271.307,192.833 L269.587,192.833 L269.587,187.75 z" fill-opacity="0" stroke="#1A1919" stroke-width="1"/>
    </g>
    <g>
      <path d="M259.795,187.75 L260.091,187.75 L260.091,192.833 L259.795,192.833 L259.795,187.75 z" fill="#1A1919"/>
      <path d="M259.795,187.75 L260.091,187.75 L260.091,192.833 L259.795,192.833 L259.795,187.75 z" fill-opacity="0" stroke="#1A1919" stroke-width="1"/>
    </g>
    <g>
      <path d="M270.86,197 L258.568,199.105 L270.86,198.635 L270.86,197 z" fill="#1A1919"/>
      <path d="M270.86,197 L258.568,199.105 L270.86,198.635 L270.86,197 z" fill-opacity="0" stroke="#1A1919" stroke-width="1"/>
    </g>
    <g>
      <path d="M270.86,193.672 L258.568,195.776 L270.86,195.307 L270.86,193.672 z" fill="#1A1919"/>
      <path d="M270.86,193.672 L258.568,195.776 L270.86,195.307 L270.86,193.672 z" fill-opacity="0" stroke="#1A1919" stroke-width="1"/>
    </g>
    <path d="M240.473,146.635 C240.473,116.27 250.193,89.699 264.714,75.154 C279.235,89.699 288.955,116.27 288.955,146.635 C288.955,163.018 282.394,175.45 271.392,187.75 L258.036,187.75 C247.034,175.45 240.473,163.018 240.473,146.635 z" fill-opacity="0" stroke="#1A1919" stroke-width="2"/>
  </g>
  <defs/>
</svg>
