<?xml version="1.0" encoding="utf-8"?>
<!-- Generator: Adobe Illustrator 18.1.1, SVG Export Plug-In . SVG Version: 6.00 Build 0)  -->
<svg version="1.2" baseProfile="tiny" id="Layer_1" xmlns="http://www.w3.org/2000/svg" xmlns:xlink="http://www.w3.org/1999/xlink"
	 x="0px" y="0px" viewBox="0 0 55.2 55.2" xml:space="preserve">
<ellipse transform="matrix(0.7765 -0.6301 0.6301 0.7765 -8.3379 25.912)" fill="none" stroke="#000000" stroke-miterlimit="10" cx="32.4" cy="24.7" rx="11.1" ry="29.9"/>
<ellipse transform="matrix(0.7765 -0.6301 0.6301 0.7765 -8.3374 25.9124)" fill="none" stroke="#000000" stroke-miterlimit="10" cx="32.4" cy="24.7" rx="8.7" ry="27"/>
<path fill="none" stroke="#000000" stroke-miterlimit="10" d="M10,44.9c-1.7,2.6-1.6,5.8,0.3,7.1c1.8,1.3,4.7,0.6,6.7-1.7
	C14.2,48.8,11.9,46.9,10,44.9z"/>
<path fill="none" stroke="#000000" stroke-miterlimit="10" d="M51.2,47.9c-4.8,3.9-17-3.4-27.4-16.2C13.4,18.9,8.8,5.4,13.6,1.5
	c-4.8,3.9-19,17.4-6.2,39.8c4.3,7.1,14.3,13.1,25,13.3C39.9,54.8,46.4,51.8,51.2,47.9z"/>
</svg>
