<?xml version="1.0" encoding="utf-8"?>
<!-- Generator: Adobe Illustrator 18.1.1, SVG Export Plug-In . SVG Version: 6.00 Build 0)  -->
<svg version="1.2" baseProfile="tiny" id="Layer_1" xmlns="http://www.w3.org/2000/svg" xmlns:xlink="http://www.w3.org/1999/xlink"
	 x="0px" y="0px" viewBox="0 0 55.1 55.1" xml:space="preserve">
<g>
	<path id="XMLID_32_" fill="none" stroke="#000000" stroke-miterlimit="10" d="M28.8,54.1c0,0,1.8,1.2,3.4-0.1V52
		c0,0-0.1-0.6-0.7-0.7c-0.6-0.1-2,0.2-2,0.2l-0.8,0.2L28.8,54.1z"/>
	<path fill="none" stroke="#000000" stroke-miterlimit="10" d="M19.2,35.9V48c1.4,1,2.3,2.7,5.1,3.5c0.1,0,0.2,0,0.2,0
		c0.2,0.1,0.4,0.1,0.6,0.1c0.6,0.1,1.3,0.2,2.1,0.2c0.5,0,1,0,1.4-0.1c0.5-0.1,1-0.2,1.4-0.3c0,0,0,0,0,0c3.2-1,4.5-3.4,4.5-3.4
		l0.4-12"/>
	<path id="XMLID_31_" fill="none" stroke="#000000" stroke-miterlimit="10" d="M10.6,10.1c0,0-1.2,19.1,8.3,25.7c0,0,8,5.3,16.6,0
		c0,0,8.9-4.8,8.5-25.4"/>
	<path id="XMLID_30_" fill="none" stroke="#000000" stroke-miterlimit="10" d="M34.8,14.1c0,0,0.1,14.7-7.6,14.7
		c-7.7,0-7.6-14.9-7.6-14.9"/>
	<path id="XMLID_29_" fill="none" stroke="#000000" stroke-miterlimit="10" d="M25.2,54.1c0,0-1.8,1.2-3.4-0.1V52
		c0,0,0.1-0.6,0.7-0.7c0.6-0.1,2,0.2,2,0.2l0.8,0.2L25.2,54.1z"/>
	<ellipse id="XMLID_28_" fill="none" stroke="#000000" stroke-miterlimit="10" cx="27.5" cy="7.4" rx="18.3" ry="6.9"/>
	<ellipse id="XMLID_27_" fill="none" stroke="#000000" stroke-miterlimit="10" cx="27.4" cy="7.2" rx="12.2" ry="4"/>
</g>
</svg>
