<?xml version="1.0" encoding="utf-8"?>
<!-- Generator: Adobe Illustrator 18.1.1, SVG Export Plug-In . SVG Version: 6.00 Build 0)  -->
<svg version="1.2" baseProfile="tiny" id="Layer_1" xmlns="http://www.w3.org/2000/svg" xmlns:xlink="http://www.w3.org/1999/xlink"
	 x="0px" y="0px" viewBox="0 0 55.2 55.2" xml:space="preserve">
<g>
	<path fill="none" stroke="#000000" stroke-miterlimit="10" d="M42.4,54.7H12.8c-1.2,0-2.1-0.9-2.1-2.1v-50c0-1.2,0.9-2.1,2.1-2.1
		h29.6c1.2,0,2.1,0.9,2.1,2.1v50C44.5,53.8,43.6,54.7,42.4,54.7z"/>
	<path fill="none" stroke="#000000" stroke-miterlimit="10" d="M33.9,48.3H21.3c-0.9,0-1.6-0.7-1.6-1.6V8.5c0-0.9,0.7-1.6,1.6-1.6
		h12.7c0.9,0,1.6,0.7,1.6,1.6v38.2C35.5,47.6,34.8,48.3,33.9,48.3z"/>
	<line fill="none" stroke="#000000" stroke-miterlimit="10" x1="19.7" y1="20" x2="35.5" y2="20"/>
	<line fill="none" stroke="#000000" stroke-miterlimit="10" x1="19.7" y1="27.6" x2="35.5" y2="27.6"/>
	<line fill="none" stroke="#000000" stroke-miterlimit="10" x1="19.7" y1="35.7" x2="35.5" y2="35.7"/>
</g>
</svg>
