<?xml version="1.0" encoding="utf-8"?>
<!-- Generator: Adobe Illustrator 18.1.1, SVG Export Plug-In . SVG Version: 6.00 Build 0)  -->
<svg version="1.2" baseProfile="tiny" id="Layer_1" xmlns="http://www.w3.org/2000/svg" xmlns:xlink="http://www.w3.org/1999/xlink"
	 x="0px" y="0px" viewBox="0 0 78.7 78.7" xml:space="preserve">
<g id="Layer_2_1_">
	<g>
		<line fill="none" stroke="#010101" stroke-width="0.5" stroke-miterlimit="10" x1="38.5" y1="42.1" x2="41.5" y2="46.6"/>
		<path fill="none" stroke="#010101" stroke-width="0.5" stroke-miterlimit="10" d="M37.1,47.4"/>
		<line fill="none" stroke="#010101" stroke-width="0.5" stroke-miterlimit="10" x1="37.1" y1="47.4" x2="41" y2="46"/>
		<line fill="none" stroke="#010101" stroke-width="0.5" stroke-miterlimit="10" x1="40" y1="46.6" x2="40" y2="56"/>
		<line fill="none" stroke="#010101" stroke-width="0.5" stroke-miterlimit="10" x1="38.2" y1="50" x2="38.5" y2="43.4"/>
		<line fill="none" stroke="#010101" stroke-width="0.5" stroke-miterlimit="10" x1="42.4" y1="48.3" x2="55.3" y2="41.6"/>
		<line fill="none" stroke="#010101" stroke-width="0.5" stroke-miterlimit="10" x1="44.9" y1="50" x2="48.1" y2="41"/>
		<line fill="none" stroke="#010101" stroke-width="0.5" stroke-miterlimit="10" x1="50.9" y1="47.9" x2="45.6" y2="40.2"/>
		<line fill="none" stroke="#010101" stroke-width="0.5" stroke-miterlimit="10" x1="46.5" y1="52.5" x2="46.5" y2="42.1"/>
		<line fill="none" stroke="#010101" stroke-width="0.5" stroke-miterlimit="10" x1="49.9" y1="52.5" x2="40.2" y2="44.8"/>
		<line fill="none" stroke="#010101" stroke-width="0.5" stroke-miterlimit="10" x1="39.3" y1="54.5" x2="45.6" y2="41.6"/>
		<line fill="none" stroke="#010101" stroke-width="0.5" stroke-miterlimit="10" x1="50.2" y1="54.5" x2="38.2" y2="53.8"/>
		<line fill="none" stroke="#010101" stroke-width="0.5" stroke-miterlimit="10" x1="53" y1="53.4" x2="41" y2="52.1"/>
		<line fill="none" stroke="#010101" stroke-width="0.5" stroke-miterlimit="10" x1="46.5" y1="53.4" x2="35.4" y2="47.3"/>
		<line fill="none" stroke="#010101" stroke-width="0.5" stroke-miterlimit="10" x1="23.4" y1="43.4" x2="41.5" y2="45.7"/>
		<line fill="none" stroke="#010101" stroke-width="0.5" stroke-miterlimit="10" x1="35.4" y1="57.4" x2="40.6" y2="48.3"/>
		<line fill="none" stroke="#010101" stroke-width="0.5" stroke-miterlimit="10" x1="34.9" y1="52.1" x2="30" y2="54.5"/>
		<line fill="none" stroke="#010101" stroke-width="0.5" stroke-miterlimit="10" x1="31.2" y1="49.2" x2="35.4" y2="54.1"/>
		<polyline fill="none" stroke="#010101" stroke-width="0.5" stroke-miterlimit="10" points="32.9,33.5 35.4,52.9 44,53.3 		"/>
		<polyline fill="none" stroke="#010101" stroke-width="0.5" stroke-miterlimit="10" points="25.7,52.6 36.6,43.4 39.3,40.2 
			34.9,48.8 		"/>
		<polyline fill="none" stroke="#010101" stroke-width="0.5" stroke-miterlimit="10" points="40,39.2 43.9,31.4 38.5,34.3 		"/>
		<line fill="none" stroke="#010101" stroke-width="0.5" stroke-miterlimit="10" x1="38.5" y1="35.3" x2="34.4" y2="43.2"/>
		<line fill="none" stroke="#010101" stroke-width="0.5" stroke-miterlimit="10" x1="41.5" y1="37.6" x2="51.3" y2="38.4"/>
		<line fill="none" stroke="#010101" stroke-width="0.5" stroke-miterlimit="10" x1="42.7" y1="38.4" x2="45.6" y2="39.2"/>
		<line fill="none" stroke="#010101" stroke-width="0.5" stroke-miterlimit="10" x1="43.9" y1="40.6" x2="45.6" y2="40.6"/>
		<line fill="none" stroke="#010101" stroke-width="0.5" stroke-miterlimit="10" x1="46.4" y1="44.8" x2="32.4" y2="30.8"/>
		<line fill="none" stroke="#010101" stroke-width="0.5" stroke-miterlimit="10" x1="29.7" y1="41" x2="34.1" y2="44.1"/>
		<polyline fill="none" stroke="#010101" stroke-width="0.5" stroke-miterlimit="10" points="41.5,47.3 40,39.6 38.5,32.3 		"/>
		<line fill="none" stroke="#010101" stroke-width="0.5" stroke-miterlimit="10" x1="35.2" y1="41.6" x2="39.3" y2="38.7"/>
		<line fill="none" stroke="#010101" stroke-width="0.5" stroke-miterlimit="10" x1="41" y1="44.1" x2="43.9" y2="42.9"/>
		<line fill="none" stroke="#010101" stroke-width="0.5" stroke-miterlimit="10" x1="38.9" y1="42.7" x2="49.1" y2="40.6"/>
		<line fill="none" stroke="#010101" stroke-width="0.5" stroke-miterlimit="10" x1="36.6" y1="50.4" x2="29" y2="45"/>
		<line fill="none" stroke="#010101" stroke-width="0.5" stroke-miterlimit="10" x1="26.4" y1="41" x2="27.8" y2="49.7"/>
		<line fill="none" stroke="#010101" stroke-width="0.5" stroke-miterlimit="10" x1="26.8" y1="48.8" x2="31.2" y2="45.5"/>
		<line fill="none" stroke="#010101" stroke-width="0.5" stroke-miterlimit="10" x1="31.9" y1="45.3" x2="26.8" y2="38.4"/>
		<line fill="none" stroke="#010101" stroke-width="0.5" stroke-miterlimit="10" x1="21.1" y1="49.2" x2="25.7" y2="48.8"/>
		<line fill="none" stroke="#010101" stroke-width="0.5" stroke-miterlimit="10" x1="23.8" y1="51.3" x2="31.9" y2="52.1"/>
		<line fill="none" stroke="#010101" stroke-width="0.5" stroke-miterlimit="10" x1="33.3" y1="58.8" x2="32.9" y2="48.8"/>
		<line fill="none" stroke="#010101" stroke-width="0.5" stroke-miterlimit="10" x1="40.6" y1="57.4" x2="35.8" y2="54.5"/>
		<line fill="none" stroke="#010101" stroke-width="0.5" stroke-miterlimit="10" x1="39.4" y1="57.7" x2="44" y2="54.5"/>
		<line fill="none" stroke="#010101" stroke-width="0.5" stroke-miterlimit="10" x1="34.1" y1="50" x2="38" y2="51.7"/>
		<line fill="none" stroke="#010101" stroke-width="0.5" stroke-miterlimit="10" x1="47" y1="49.4" x2="58.4" y2="47.4"/>
		<line fill="none" stroke="#010101" stroke-width="0.5" stroke-miterlimit="10" x1="42.5" y1="50.4" x2="60.5" y2="50.9"/>
		<line fill="none" stroke="#010101" stroke-width="0.5" stroke-miterlimit="10" x1="56.4" y1="51.7" x2="44.2" y2="51.7"/>
		<line fill="none" stroke="#010101" stroke-width="0.5" stroke-miterlimit="10" x1="53.2" y1="45.7" x2="49.9" y2="47.7"/>
		<line fill="none" stroke="#010101" stroke-width="0.5" stroke-miterlimit="10" x1="42.5" y1="45.7" x2="54.9" y2="47.7"/>
		<line fill="none" stroke="#010101" stroke-width="0.5" stroke-miterlimit="10" x1="57.7" y1="46" x2="51.6" y2="48.3"/>
		<line fill="none" stroke="#010101" stroke-width="0.5" stroke-miterlimit="10" x1="58.7" y1="41.6" x2="48.9" y2="50.6"/>
		<line fill="none" stroke="#010101" stroke-width="0.5" stroke-miterlimit="10" x1="65" y1="48.3" x2="53.8" y2="40.6"/>
		<line fill="none" stroke="#010101" stroke-width="0.5" stroke-miterlimit="10" x1="51.6" y1="43.6" x2="41" y2="27.6"/>
		<line fill="none" stroke="#010101" stroke-width="0.5" stroke-miterlimit="10" x1="52" y1="34.2" x2="51.3" y2="45.3"/>
		<line fill="none" stroke="#010101" stroke-width="0.5" stroke-miterlimit="10" x1="53.8" y1="56.6" x2="55.8" y2="46.7"/>
		<line fill="none" stroke="#010101" stroke-width="0.5" stroke-miterlimit="10" x1="41.7" y1="57.7" x2="48.1" y2="54.5"/>
		<line fill="none" stroke="#010101" stroke-width="0.5" stroke-miterlimit="10" x1="47.3" y1="56.6" x2="50.3" y2="58.8"/>
		<line fill="none" stroke="#010101" stroke-width="0.5" stroke-miterlimit="10" x1="50.3" y1="56.1" x2="53" y2="52.5"/>
		<line fill="none" stroke="#010101" stroke-width="0.5" stroke-miterlimit="10" x1="59.7" y1="52.6" x2="52.3" y2="53.4"/>
		<line fill="none" stroke="#010101" stroke-width="0.5" stroke-miterlimit="10" x1="60.5" y1="55" x2="50.3" y2="52.5"/>
		<line fill="none" stroke="#010101" stroke-width="0.5" stroke-miterlimit="10" x1="60.5" y1="53.8" x2="53.8" y2="52.1"/>
		<line fill="none" stroke="#010101" stroke-width="0.5" stroke-miterlimit="10" x1="58" y1="49.7" x2="62" y2="49.7"/>
		<line fill="none" stroke="#010101" stroke-width="0.5" stroke-miterlimit="10" x1="63" y1="50.9" x2="53.2" y2="46.7"/>
		<line fill="none" stroke="#010101" stroke-width="0.5" stroke-miterlimit="10" x1="60" y1="50.6" x2="59.4" y2="44.1"/>
		<line fill="none" stroke="#010101" stroke-width="0.5" stroke-miterlimit="10" x1="55.3" y1="44.1" x2="46.5" y2="43.2"/>
		<line fill="none" stroke="#010101" stroke-width="0.5" stroke-miterlimit="10" x1="30.9" y1="58.4" x2="29.7" y2="52.5"/>
		<line fill="none" stroke="#010101" stroke-width="0.5" stroke-miterlimit="10" x1="30" y1="55.9" x2="28.3" y2="52.1"/>
		<line fill="none" stroke="#010101" stroke-width="0.5" stroke-miterlimit="10" x1="30.7" y1="57.4" x2="27.8" y2="54.5"/>
		<line fill="none" stroke="#010101" stroke-width="0.5" stroke-miterlimit="10" x1="30" y1="57" x2="23.4" y2="57"/>
		<line fill="none" stroke="#010101" stroke-width="0.5" stroke-miterlimit="10" x1="31.9" y1="56.6" x2="30.3" y2="57"/>
		<line fill="none" stroke="#010101" stroke-width="0.5" stroke-miterlimit="10" x1="32.4" y1="55.9" x2="32.5" y2="57.7"/>
		<line fill="none" stroke="#010101" stroke-width="0.5" stroke-miterlimit="10" x1="36.1" y1="55.9" x2="29" y2="59.1"/>
		<line fill="none" stroke="#010101" stroke-width="0.5" stroke-miterlimit="10" x1="34.7" y1="59.1" x2="34.7" y2="57.4"/>
		<polyline fill="none" stroke="#010101" stroke-width="0.5" stroke-miterlimit="10" points="39.1,58.4 37.1,56 25.2,49.2 		"/>
		<polyline fill="none" stroke="#010101" stroke-width="0.5" stroke-miterlimit="10" points="23.4,54 25.2,54 29.2,54 		"/>
		<path fill="none" stroke="#010101" stroke-width="0.5" stroke-miterlimit="10" d="M25.2,57.7"/>
		<line fill="none" stroke="#010101" stroke-width="0.5" stroke-miterlimit="10" x1="25.2" y1="57" x2="25.2" y2="54"/>
		<line fill="none" stroke="#010101" stroke-width="0.5" stroke-miterlimit="10" x1="45.6" y1="57.7" x2="48.3" y2="55.9"/>
		<line fill="none" stroke="#010101" stroke-width="0.5" stroke-miterlimit="10" x1="44.8" y1="57.7" x2="42.7" y2="57.9"/>
		<line fill="none" stroke="#010101" stroke-width="0.5" stroke-miterlimit="10" x1="41.7" y1="59.8" x2="38.5" y2="56.8"/>
		<line fill="none" stroke="#010101" stroke-width="0.5" stroke-miterlimit="10" x1="45.6" y1="59.6" x2="45.6" y2="58.3"/>
		<line fill="none" stroke="#010101" stroke-width="0.5" stroke-miterlimit="10" x1="47.6" y1="59.4" x2="48.1" y2="57.9"/>
		<line fill="none" stroke="#010101" stroke-width="0.5" stroke-miterlimit="10" x1="35.4" y1="59.6" x2="48.3" y2="57.7"/>
		<line fill="none" stroke="#010101" stroke-width="0.5" stroke-miterlimit="10" x1="53.8" y1="57.9" x2="49.9" y2="55.5"/>
		<polyline fill="none" stroke="#010101" stroke-width="0.5" stroke-miterlimit="10" points="57.1,54.5 51.6,58.6 43.1,57 
			40.6,55.5 		"/>
		<line fill="none" stroke="#010101" stroke-width="0.5" stroke-miterlimit="10" x1="23.4" y1="56.1" x2="23.4" y2="49.4"/>
		<line fill="none" stroke="#010101" stroke-width="0.5" stroke-miterlimit="10" x1="25.2" y1="46.1" x2="16.9" y2="49.2"/>
		<line fill="none" stroke="#010101" stroke-width="0.5" stroke-miterlimit="10" x1="22.3" y1="44.1" x2="21.4" y2="52.5"/>
		<line fill="none" stroke="#010101" stroke-width="0.5" stroke-miterlimit="10" x1="22.3" y1="54" x2="21.1" y2="48.8"/>
		<line fill="none" stroke="#010101" stroke-width="0.5" stroke-miterlimit="10" x1="19.8" y1="55" x2="20.1" y2="50.6"/>
		<line fill="none" stroke="#010101" stroke-width="0.5" stroke-miterlimit="10" x1="18.9" y1="52.1" x2="24.6" y2="52.6"/>
		<line fill="none" stroke="#010101" stroke-width="0.5" stroke-miterlimit="10" x1="21" y1="56.6" x2="24.3" y2="53.4"/>
		<line fill="none" stroke="#010101" stroke-width="0.5" stroke-miterlimit="10" x1="19.4" y1="56.1" x2="20.6" y2="55"/>
		<line fill="none" stroke="#010101" stroke-width="0.5" stroke-miterlimit="10" x1="14.4" y1="55" x2="16.6" y2="50.6"/>
		<path fill="none" stroke="#010101" stroke-width="0.5" stroke-miterlimit="10" d="M14.4,49.2c0.5,0.2,3.2,2.5,3.2,2.5"/>
		<line fill="none" stroke="#010101" stroke-width="0.5" stroke-miterlimit="10" x1="17.6" y1="49.7" x2="18.9" y2="42.5"/>
		<line fill="none" stroke="#010101" stroke-width="0.5" stroke-miterlimit="10" x1="21.1" y1="45.5" x2="15.5" y2="34.6"/>
		<line fill="none" stroke="#010101" stroke-width="0.5" stroke-miterlimit="10" x1="20.1" y1="43.4" x2="22.7" y2="43.2"/>
		<line fill="none" stroke="#010101" stroke-width="0.5" stroke-miterlimit="10" x1="23.4" y1="40.2" x2="25.2" y2="45.3"/>
		<line fill="none" stroke="#010101" stroke-width="0.5" stroke-miterlimit="10" x1="54.1" y1="48.6" x2="52" y2="52.4"/>
		<line fill="none" stroke="#010101" stroke-width="0.5" stroke-miterlimit="10" x1="31.2" y1="39.6" x2="30.3" y2="36.8"/>
		<line fill="none" stroke="#010101" stroke-width="0.5" stroke-miterlimit="10" x1="31.1" y1="36" x2="38.9" y2="35.3"/>
		<line fill="none" stroke="#010101" stroke-width="0.5" stroke-miterlimit="10" x1="40" y1="32" x2="30.9" y2="41.9"/>
		<line fill="none" stroke="#010101" stroke-width="0.5" stroke-miterlimit="10" x1="28.3" y1="44.1" x2="28.3" y2="32.7"/>
		<line fill="none" stroke="#010101" stroke-width="0.5" stroke-miterlimit="10" x1="25.7" y1="47.7" x2="29.3" y2="43.5"/>
		<line fill="none" stroke="#010101" stroke-width="0.5" stroke-miterlimit="10" x1="23.4" y1="42.1" x2="27.5" y2="38.7"/>
		<polyline fill="none" stroke="#010101" stroke-width="0.5" stroke-miterlimit="10" points="32.4,34.2 25.2,38.8 24.6,34.6 		"/>
		<line fill="none" stroke="#010101" stroke-width="0.5" stroke-miterlimit="10" x1="33.7" y1="30.5" x2="27.8" y2="38"/>
		<line fill="none" stroke="#010101" stroke-width="0.5" stroke-miterlimit="10" x1="38" y1="30.5" x2="32.9" y2="32.3"/>
		<line fill="none" stroke="#010101" stroke-width="0.5" stroke-miterlimit="10" x1="37.9" y1="34.3" x2="35.5" y2="26.1"/>
		<line fill="none" stroke="#010101" stroke-width="0.5" stroke-miterlimit="10" x1="34.7" y1="28.9" x2="45.6" y2="32.3"/>
		<line fill="none" stroke="#010101" stroke-width="0.5" stroke-miterlimit="10" x1="45.6" y1="28.2" x2="44.8" y2="30.5"/>
		<polyline fill="none" stroke="#010101" stroke-width="0.5" stroke-miterlimit="10" points="39.4,26.5 48.1,30.5 39.7,27.6 		"/>
		<line fill="none" stroke="#010101" stroke-width="0.5" stroke-miterlimit="10" x1="48.3" y1="28.2" x2="45.5" y2="28.5"/>
		<line fill="none" stroke="#010101" stroke-width="0.5" stroke-miterlimit="10" x1="60.9" y1="36.5" x2="39.4" y2="35.3"/>
		<polyline fill="none" stroke="#010101" stroke-width="0.5" stroke-miterlimit="10" points="34.1,38 29,40.4 32.1,35.3 		"/>
		<line fill="none" stroke="#010101" stroke-width="0.5" stroke-miterlimit="10" x1="33.7" y1="34.2" x2="28.3" y2="28.9"/>
		<line fill="none" stroke="#010101" stroke-width="0.5" stroke-miterlimit="10" x1="27.1" y1="30.2" x2="32.1" y2="33.2"/>
		<polyline fill="none" stroke="#010101" stroke-width="0.5" stroke-miterlimit="10" points="26.3,31.6 31,33.9 27.5,37.6 
			24.3,29.7 		"/>
		<line fill="none" stroke="#010101" stroke-width="0.5" stroke-miterlimit="10" x1="23.8" y1="41.6" x2="25.2" y2="29.3"/>
		<line fill="none" stroke="#010101" stroke-width="0.5" stroke-miterlimit="10" x1="21.9" y1="37.2" x2="23.8" y2="44.1"/>
		<line fill="none" stroke="#010101" stroke-width="0.5" stroke-miterlimit="10" x1="16" y1="44.4" x2="19.4" y2="34.3"/>
		<line fill="none" stroke="#010101" stroke-width="0.5" stroke-miterlimit="10" x1="23.4" y1="35.5" x2="24.2" y2="37.6"/>
		<line fill="none" stroke="#010101" stroke-width="0.5" stroke-miterlimit="10" x1="18.3" y1="34.6" x2="25" y2="31.3"/>
		<line fill="none" stroke="#010101" stroke-width="0.5" stroke-miterlimit="10" x1="21.8" y1="27.2" x2="19.4" y2="33.6"/>
		<line fill="none" stroke="#010101" stroke-width="0.5" stroke-miterlimit="10" x1="16.2" y1="29.7" x2="21.1" y2="35.1"/>
		<line fill="none" stroke="#010101" stroke-width="0.5" stroke-miterlimit="10" x1="20.1" y1="35.3" x2="21.8" y2="37.8"/>
		<line fill="none" stroke="#010101" stroke-width="0.5" stroke-miterlimit="10" x1="22.3" y1="36.5" x2="20.6" y2="42.1"/>
		<line fill="none" stroke="#010101" stroke-width="0.5" stroke-miterlimit="10" x1="32.1" y1="41.9" x2="35.8" y2="40.1"/>
		<line fill="none" stroke="#010101" stroke-width="0.5" stroke-miterlimit="10" x1="32.5" y1="36.9" x2="39.6" y2="37.6"/>
		<line fill="none" stroke="#010101" stroke-width="0.5" stroke-miterlimit="10" x1="47.3" y1="33" x2="40.2" y2="39.3"/>
		<line fill="none" stroke="#010101" stroke-width="0.5" stroke-miterlimit="10" x1="48.3" y1="36.8" x2="46" y2="31.6"/>
		<line fill="none" stroke="#010101" stroke-width="0.5" stroke-miterlimit="10" x1="48.7" y1="30.2" x2="44.9" y2="32.7"/>
		<line fill="none" stroke="#010101" stroke-width="0.5" stroke-miterlimit="10" x1="39.6" y1="28.5" x2="36.5" y2="34.9"/>
		<line fill="none" stroke="#010101" stroke-width="0.5" stroke-miterlimit="10" x1="54.9" y1="42.1" x2="42.7" y2="36"/>
		<line fill="none" stroke="#010101" stroke-width="0.5" stroke-miterlimit="10" x1="37.1" y1="50.4" x2="37.3" y2="46.1"/>
		<line fill="none" stroke="#010101" stroke-width="0.5" stroke-miterlimit="10" x1="49.1" y1="55.9" x2="47" y2="50"/>
		<path fill="none" stroke="#010101" stroke-width="0.5" stroke-miterlimit="10" d="M41.8,59.1c0.2-0.5,3.2-5.8,3.2-5.8"/>
		<line fill="none" stroke="#010101" stroke-width="0.5" stroke-miterlimit="10" x1="69.7" y1="38" x2="66.8" y2="33.5"/>
		<path fill="none" stroke="#010101" stroke-width="0.5" stroke-miterlimit="10" d="M71.1,32.8"/>
		<line fill="none" stroke="#010101" stroke-width="0.5" stroke-miterlimit="10" x1="71.1" y1="32.8" x2="67.2" y2="34.2"/>
		<line fill="none" stroke="#010101" stroke-width="0.5" stroke-miterlimit="10" x1="68.2" y1="33.5" x2="68.2" y2="24.1"/>
		<line fill="none" stroke="#010101" stroke-width="0.5" stroke-miterlimit="10" x1="70" y1="30.2" x2="69.7" y2="36.8"/>
		<line fill="none" stroke="#010101" stroke-width="0.5" stroke-miterlimit="10" x1="65.8" y1="31.8" x2="52.9" y2="38.6"/>
		<line fill="none" stroke="#010101" stroke-width="0.5" stroke-miterlimit="10" x1="63.3" y1="30.2" x2="60.1" y2="39.2"/>
		<line fill="none" stroke="#010101" stroke-width="0.5" stroke-miterlimit="10" x1="57.4" y1="32.2" x2="62.6" y2="40"/>
		<line fill="none" stroke="#010101" stroke-width="0.5" stroke-miterlimit="10" x1="61.7" y1="27.7" x2="61.7" y2="38"/>
		<line fill="none" stroke="#010101" stroke-width="0.5" stroke-miterlimit="10" x1="58.3" y1="27.7" x2="68" y2="35.4"/>
		<line fill="none" stroke="#010101" stroke-width="0.5" stroke-miterlimit="10" x1="68.9" y1="25.7" x2="62.6" y2="38.6"/>
		<line fill="none" stroke="#010101" stroke-width="0.5" stroke-miterlimit="10" x1="58.1" y1="25.7" x2="70" y2="26.4"/>
		<line fill="none" stroke="#010101" stroke-width="0.5" stroke-miterlimit="10" x1="55.3" y1="26.7" x2="67.2" y2="28.1"/>
		<line fill="none" stroke="#010101" stroke-width="0.5" stroke-miterlimit="10" x1="61.7" y1="26.7" x2="72.8" y2="32.8"/>
		<line fill="none" stroke="#010101" stroke-width="0.5" stroke-miterlimit="10" x1="78.3" y1="36.8" x2="66.8" y2="34.4"/>
		<polyline fill="none" stroke="#010101" stroke-width="0.5" stroke-miterlimit="10" points="67.6,31.8 68.2,30.8 68.4,30.4 
			70.3,27.2 70.9,26.2 		"/>
		<polyline fill="none" stroke="#010101" stroke-width="0.5" stroke-miterlimit="10" points="64.2,26.9 68.2,27.1 68.3,27.1 
			70.3,27.2 72.2,27.3 		"/>
		<polyline fill="none" stroke="#010101" stroke-width="0.5" stroke-miterlimit="10" points="72.9,27.9 72.9,27.9 73.1,29.7 
			73.3,31 73.9,35.9 74.3,39.2 74.6,41.3 74.7,41.9 74.9,43.2 75,44.4 75.3,46.4 75.3,46.7 		"/>
		<polyline fill="none" stroke="#010101" stroke-width="0.5" stroke-miterlimit="10" points="68.2,41 64.3,48.8 69.7,45.9 		"/>
		<line fill="none" stroke="#010101" stroke-width="0.5" stroke-miterlimit="10" x1="69.7" y1="44.9" x2="73.8" y2="37"/>
		<line fill="none" stroke="#010101" stroke-width="0.5" stroke-miterlimit="10" x1="66.8" y1="42.6" x2="56.9" y2="41.8"/>
		<line fill="none" stroke="#010101" stroke-width="0.5" stroke-miterlimit="10" x1="65.5" y1="41.8" x2="62.6" y2="41"/>
		<line fill="none" stroke="#010101" stroke-width="0.5" stroke-miterlimit="10" x1="64.3" y1="39.5" x2="62.6" y2="39.5"/>
		<polyline fill="none" stroke="#010101" stroke-width="0.5" stroke-miterlimit="10" points="74.6,48.1 74.5,48 71.8,45.3 
			71.3,44.9 71.1,44.7 70.2,43.8 69,42.6 68.5,42.1 68,41.5 67.6,41.2 64.8,38.4 63.4,37 61.8,35.4 		"/>
		<line fill="none" stroke="#010101" stroke-width="0.5" stroke-miterlimit="10" x1="78.5" y1="39.2" x2="74.1" y2="36.1"/>
		<polyline fill="none" stroke="#010101" stroke-width="0.5" stroke-miterlimit="10" points="66.8,32.8 68.2,40.6 69.8,47.8 		"/>
		<line fill="none" stroke="#010101" stroke-width="0.5" stroke-miterlimit="10" x1="73" y1="38.6" x2="68.9" y2="41.5"/>
		<line fill="none" stroke="#010101" stroke-width="0.5" stroke-miterlimit="10" x1="67.2" y1="36.1" x2="64.3" y2="37.3"/>
		<line fill="none" stroke="#010101" stroke-width="0.5" stroke-miterlimit="10" x1="69.3" y1="37.5" x2="59.1" y2="39.5"/>
		<polyline fill="none" stroke="#010101" stroke-width="0.5" stroke-miterlimit="10" points="77.5,33.9 77.5,33.9 73.3,31 
			71.6,29.8 		"/>
		<line fill="none" stroke="#010101" stroke-width="0.5" stroke-miterlimit="10" x1="74.1" y1="30.2" x2="70.2" y2="28.4"/>
		<line fill="none" stroke="#010101" stroke-width="0.5" stroke-miterlimit="10" x1="61.2" y1="30.8" x2="49.8" y2="32.8"/>
		<line fill="none" stroke="#010101" stroke-width="0.5" stroke-miterlimit="10" x1="65.8" y1="29.8" x2="47.7" y2="29.3"/>
		<line fill="none" stroke="#010101" stroke-width="0.5" stroke-miterlimit="10" x1="51.8" y1="28.4" x2="64" y2="28.5"/>
		<line fill="none" stroke="#010101" stroke-width="0.5" stroke-miterlimit="10" x1="55" y1="34.4" x2="58.3" y2="32.5"/>
		<line fill="none" stroke="#010101" stroke-width="0.5" stroke-miterlimit="10" x1="65.8" y1="34.4" x2="53.4" y2="32.5"/>
		<line fill="none" stroke="#010101" stroke-width="0.5" stroke-miterlimit="10" x1="50.6" y1="34.2" x2="56.7" y2="31.8"/>
		<line fill="none" stroke="#010101" stroke-width="0.5" stroke-miterlimit="10" x1="49.5" y1="38.6" x2="59.3" y2="29.5"/>
		<line fill="none" stroke="#010101" stroke-width="0.5" stroke-miterlimit="10" x1="43.2" y1="31.8" x2="54.4" y2="39.5"/>
		<line fill="none" stroke="#010101" stroke-width="0.5" stroke-miterlimit="10" x1="56.7" y1="36.6" x2="67.2" y2="52.6"/>
		<line fill="none" stroke="#010101" stroke-width="0.5" stroke-miterlimit="10" x1="56.2" y1="46" x2="56.9" y2="34.8"/>
		<line fill="none" stroke="#010101" stroke-width="0.5" stroke-miterlimit="10" x1="54.4" y1="23.5" x2="52.5" y2="33.5"/>
		<polyline fill="none" stroke="#010101" stroke-width="0.5" stroke-miterlimit="10" points="60.1,25.7 65.2,23.2 65.3,23.1 
			65.5,23 		"/>
		<line fill="none" stroke="#010101" stroke-width="0.5" stroke-miterlimit="10" x1="60.9" y1="23.5" x2="57.9" y2="21.4"/>
		<line fill="none" stroke="#010101" stroke-width="0.5" stroke-miterlimit="10" x1="57.9" y1="24.1" x2="55.3" y2="27.7"/>
		<line fill="none" stroke="#010101" stroke-width="0.5" stroke-miterlimit="10" x1="48.5" y1="27.6" x2="55.9" y2="26.8"/>
		<line fill="none" stroke="#010101" stroke-width="0.5" stroke-miterlimit="10" x1="47.7" y1="25.2" x2="57.9" y2="27.7"/>
		<line fill="none" stroke="#010101" stroke-width="0.5" stroke-miterlimit="10" x1="47.7" y1="26.4" x2="54.4" y2="28.1"/>
		<line fill="none" stroke="#010101" stroke-width="0.5" stroke-miterlimit="10" x1="50.2" y1="30.5" x2="46.2" y2="30.5"/>
		<line fill="none" stroke="#010101" stroke-width="0.5" stroke-miterlimit="10" x1="45.2" y1="29.3" x2="55" y2="33.5"/>
		<line fill="none" stroke="#010101" stroke-width="0.5" stroke-miterlimit="10" x1="48.2" y1="29.5" x2="48.8" y2="36.1"/>
		<line fill="none" stroke="#010101" stroke-width="0.5" stroke-miterlimit="10" x1="52.9" y1="36.1" x2="61.7" y2="37"/>
		<line fill="none" stroke="#010101" stroke-width="0.5" stroke-miterlimit="10" x1="62.6" y1="22.5" x2="60" y2="24.2"/>
		<line fill="none" stroke="#010101" stroke-width="0.5" stroke-miterlimit="10" x1="64.2" y1="22.4" x2="63.5" y2="22.5"/>
		<line fill="none" stroke="#010101" stroke-width="0.5" stroke-miterlimit="10" x1="62.6" y1="21.9" x2="62.6" y2="21.7"/>
		<line fill="none" stroke="#010101" stroke-width="0.5" stroke-miterlimit="10" x1="60.7" y1="20.8" x2="60.1" y2="22.2"/>
		<polyline fill="none" stroke="#010101" stroke-width="0.5" stroke-miterlimit="10" points="60,22.5 60.9,22.3 60.9,22.3 63.2,22 
			63.2,22 		"/>
		<line fill="none" stroke="#010101" stroke-width="0.5" stroke-miterlimit="10" x1="54.4" y1="22.2" x2="58.3" y2="24.7"/>
		<polyline fill="none" stroke="#010101" stroke-width="0.5" stroke-miterlimit="10" points="51.1,25.7 56.7,21.5 65.2,23.2 
			67.6,24.7 		"/>
		<line fill="none" stroke="#010101" stroke-width="0.5" stroke-miterlimit="10" x1="54.1" y1="31.5" x2="56.2" y2="27.8"/>
		<line fill="none" stroke="#010101" stroke-width="0.5" stroke-miterlimit="10" x1="77.1" y1="44.2" x2="69.3" y2="44.9"/>
		<line fill="none" stroke="#010101" stroke-width="0.5" stroke-miterlimit="10" x1="68.2" y1="48.2" x2="77.3" y2="38.3"/>
		<line fill="none" stroke="#010101" stroke-width="0.5" stroke-miterlimit="10" x1="70.2" y1="49.7" x2="75.3" y2="47.8"/>
		<polyline fill="none" stroke="#010101" stroke-width="0.5" stroke-miterlimit="10" points="71.7,50.7 71.7,50.6 71.3,49.3 
			70.7,47.4 70.3,45.9 		"/>
		<polyline fill="none" stroke="#010101" stroke-width="0.5" stroke-miterlimit="10" points="62.6,47.8 62.7,47.9 64.5,48.4 
			64.5,48.4 64.8,48.5 69.5,50 71.6,50.6 71.6,50.6 71.7,50.7 		"/>
		<line fill="none" stroke="#010101" stroke-width="0.5" stroke-miterlimit="10" x1="62.6" y1="52" x2="63.5" y2="49.7"/>
		<polyline fill="none" stroke="#010101" stroke-width="0.5" stroke-miterlimit="10" points="68.5,52.6 66.8,52 63.1,50.7 
			60.6,49.8 60.2,49.7 60.1,49.7 60.2,49.7 63,51 67.8,53.2 		"/>
		<line fill="none" stroke="#010101" stroke-width="0.5" stroke-miterlimit="10" x1="60" y1="52" x2="62.7" y2="51.7"/>
		<line fill="none" stroke="#010101" stroke-width="0.5" stroke-miterlimit="10" x1="47.3" y1="43.7" x2="68.8" y2="44.9"/>
		<polyline fill="none" stroke="#010101" stroke-width="0.5" stroke-miterlimit="10" points="78.4,40.2 77.1,40.8 74.7,41.9 
			74.1,42.2 		"/>
		<line fill="none" stroke="#010101" stroke-width="0.5" stroke-miterlimit="10" x1="70.5" y1="41.8" x2="75.9" y2="47"/>
		<line fill="none" stroke="#010101" stroke-width="0.5" stroke-miterlimit="10" x1="76.1" y1="38.3" x2="72.4" y2="40.1"/>
		<line fill="none" stroke="#010101" stroke-width="0.5" stroke-miterlimit="10" x1="75.7" y1="43.2" x2="68.6" y2="42.6"/>
		<line fill="none" stroke="#010101" stroke-width="0.5" stroke-miterlimit="10" x1="60.9" y1="47.2" x2="68" y2="40.9"/>
		<line fill="none" stroke="#010101" stroke-width="0.5" stroke-miterlimit="10" x1="60" y1="43.3" x2="62.2" y2="48.6"/>
		<line fill="none" stroke="#010101" stroke-width="0.5" stroke-miterlimit="10" x1="59.6" y1="50" x2="63.3" y2="47.5"/>
		<line fill="none" stroke="#010101" stroke-width="0.5" stroke-miterlimit="10" x1="68.6" y1="51.7" x2="71.8" y2="45.3"/>
		<line fill="none" stroke="#010101" stroke-width="0.5" stroke-miterlimit="10" x1="53.4" y1="38" x2="65.5" y2="44.2"/>
		<line fill="none" stroke="#010101" stroke-width="0.5" stroke-miterlimit="10" x1="71.1" y1="29.8" x2="71" y2="34.1"/>
		<line fill="none" stroke="#010101" stroke-width="0.5" stroke-miterlimit="10" x1="59.1" y1="24.2" x2="61.2" y2="30.2"/>
		<path fill="none" stroke="#010101" stroke-width="0.5" stroke-miterlimit="10" d="M65.4,22.9c0,0,0,0.1-0.1,0.1c0,0,0,0.1-0.1,0.1
			c-0.5,1-1.2,2.1-1.6,2.8c-0.3,0.5-0.5,0.9-0.5,0.9"/>
		<polyline fill="none" stroke="#010101" stroke-width="0.5" stroke-miterlimit="10" points="31.9,18.3 28,26 33.3,23.2 		"/>
		<polyline fill="none" stroke="#010101" stroke-width="0.5" stroke-miterlimit="10" points="35.7,17.7 34.4,20 33.9,21.1 
			33.4,22.1 33.3,22.1 		"/>
		<polyline fill="none" stroke="#010101" stroke-width="0.5" stroke-miterlimit="10" points="23.8,19.3 23.8,19.3 29.8,19.8 
			30.4,19.8 		"/>
		<line fill="none" stroke="#010101" stroke-width="0.5" stroke-miterlimit="10" x1="29.2" y1="19" x2="26.2" y2="18.3"/>
		<polyline fill="none" stroke="#010101" stroke-width="0.5" stroke-miterlimit="10" points="30.9,18.1 31.3,18.5 31.6,18.8 
			32.2,19.4 32.7,19.9 33.9,21.1 34.8,22 34.9,22.1 35.4,22.6 38.2,25.4 38.9,26 39.4,26.6 		"/>
		<polyline fill="none" stroke="#010101" stroke-width="0.5" stroke-miterlimit="10" points="31.9,18 32.2,19.4 32.3,19.8 33,23.4 
			33.2,24 33.4,25.1 		"/>
		<polyline fill="none" stroke="#010101" stroke-width="0.5" stroke-miterlimit="10" points="32.6,18.7 33.9,17.8 33.9,17.8 		"/>
		<polyline fill="none" stroke="#010101" stroke-width="0.5" stroke-miterlimit="10" points="54.5,19.2 56,22.1 56.3,22.8 		"/>
		<line fill="none" stroke="#010101" stroke-width="0.5" stroke-miterlimit="10" x1="40.7" y1="17.9" x2="41.6" y2="20.6"/>
		<line fill="none" stroke="#010101" stroke-width="0.5" stroke-miterlimit="10" x1="40.8" y1="21.5" x2="33" y2="22.1"/>
		<polyline fill="none" stroke="#010101" stroke-width="0.5" stroke-miterlimit="10" points="39.1,17.6 36.7,20.3 35.1,22 
			34.9,22.1 34,23.2 34,23.2 33.2,24 31.9,25.4 		"/>
		<polyline fill="none" stroke="#010101" stroke-width="0.5" stroke-miterlimit="10" points="43.5,24.7 43.5,20.7 43.5,20.7 
			43.5,20.1 43.5,17.7 		"/>
		<line fill="none" stroke="#010101" stroke-width="0.5" stroke-miterlimit="10" x1="45.4" y1="17.9" x2="44.3" y2="18.7"/>
		<polyline fill="none" stroke="#010101" stroke-width="0.5" stroke-miterlimit="10" points="39.4,23.3 46.7,18.7 47.3,22.8 		"/>
		<line fill="none" stroke="#010101" stroke-width="0.5" stroke-miterlimit="10" x1="38.2" y1="26.9" x2="44" y2="19.4"/>
		<line fill="none" stroke="#010101" stroke-width="0.5" stroke-miterlimit="10" x1="33.9" y1="26.9" x2="39" y2="25.1"/>
		<line fill="none" stroke="#010101" stroke-width="0.5" stroke-miterlimit="10" x1="34" y1="23.2" x2="36.4" y2="31.4"/>
		<line fill="none" stroke="#010101" stroke-width="0.5" stroke-miterlimit="10" x1="37.2" y1="28.5" x2="26.2" y2="25.1"/>
		<line fill="none" stroke="#010101" stroke-width="0.5" stroke-miterlimit="10" x1="26.2" y1="29.2" x2="27.1" y2="26.9"/>
		<polyline fill="none" stroke="#010101" stroke-width="0.5" stroke-miterlimit="10" points="32.5,30.9 23.7,26.9 32.2,29.8 		"/>
		<line fill="none" stroke="#010101" stroke-width="0.5" stroke-miterlimit="10" x1="23.6" y1="29.2" x2="26.3" y2="28.9"/>
		<polyline fill="none" stroke="#010101" stroke-width="0.5" stroke-miterlimit="10" points="17.1,21.3 17.1,21.3 17.3,21.3 
			18.6,21.4 18.6,21.4 22.7,21.6 22.7,21.6 24.1,21.7 24.4,21.7 27.5,21.9 30,22 32.5,22.1 		"/>
		<polyline fill="none" stroke="#010101" stroke-width="0.5" stroke-miterlimit="10" points="39.7,22.1 40.1,21.5 41.3,19.7 
			42.5,17.7 		"/>
		<polyline fill="none" stroke="#010101" stroke-width="0.5" stroke-miterlimit="10" points="41.6,17.6 41.6,17.6 40.7,18 
			37.7,19.4 		"/>
		<line fill="none" stroke="#010101" stroke-width="0.5" stroke-miterlimit="10" x1="38.2" y1="23.3" x2="43.5" y2="28.5"/>
		<line fill="none" stroke="#010101" stroke-width="0.5" stroke-miterlimit="10" x1="44.8" y1="27.3" x2="39.7" y2="24.3"/>
		<polyline fill="none" stroke="#010101" stroke-width="0.5" stroke-miterlimit="10" points="45.6,25.9 40.9,23.5 44.3,19.8 
			47.6,27.8 		"/>
		<polyline fill="none" stroke="#010101" stroke-width="0.5" stroke-miterlimit="10" points="46.7,28.1 46.9,26.1 46.9,26.1 
			47.6,19.8 47.8,18.1 		"/>
		<polyline fill="none" stroke="#010101" stroke-width="0.5" stroke-miterlimit="10" points="49.5,18.3 49.9,19.8 50,20.3 		"/>
		<line fill="none" stroke="#010101" stroke-width="0.5" stroke-miterlimit="10" x1="53.8" y1="19.1" x2="52.5" y2="23.2"/>
		<line fill="none" stroke="#010101" stroke-width="0.5" stroke-miterlimit="10" x1="48.5" y1="22" x2="47.6" y2="19.8"/>
		<line fill="none" stroke="#010101" stroke-width="0.5" stroke-miterlimit="10" x1="53.6" y1="22.8" x2="46.9" y2="26.1"/>
		<line fill="none" stroke="#010101" stroke-width="0.5" stroke-miterlimit="10" x1="50.1" y1="30.3" x2="52.5" y2="23.8"/>
		<line fill="none" stroke="#010101" stroke-width="0.5" stroke-miterlimit="10" x1="55.6" y1="27.8" x2="50.8" y2="22.4"/>
		<line fill="none" stroke="#010101" stroke-width="0.5" stroke-miterlimit="10" x1="51.8" y1="22.1" x2="50.1" y2="19.7"/>
		<polyline fill="none" stroke="#010101" stroke-width="0.5" stroke-miterlimit="10" points="50.3,18.4 49.9,19.8 49.9,19.8 
			49.5,21 		"/>
		<line fill="none" stroke="#010101" stroke-width="0.5" stroke-miterlimit="10" x1="39.3" y1="20.5" x2="32.3" y2="19.8"/>
		<line fill="none" stroke="#010101" stroke-width="0.5" stroke-miterlimit="10" x1="24.6" y1="24.5" x2="31.6" y2="18.1"/>
		<line fill="none" stroke="#010101" stroke-width="0.5" stroke-miterlimit="10" x1="23.6" y1="20.6" x2="25.9" y2="25.9"/>
		<line fill="none" stroke="#010101" stroke-width="0.5" stroke-miterlimit="10" x1="23.2" y1="27.3" x2="26.9" y2="24.7"/>
		<line fill="none" stroke="#010101" stroke-width="0.5" stroke-miterlimit="10" x1="32.3" y1="28.9" x2="35.4" y2="22.6"/>
		<line fill="none" stroke="#010101" stroke-width="0.5" stroke-miterlimit="10" x1="9.8" y1="39.1" x2="5.3" y2="42.1"/>
		<path fill="none" stroke="#010101" stroke-width="0.5" stroke-miterlimit="10" d="M4.5,37.7"/>
		<line fill="none" stroke="#010101" stroke-width="0.5" stroke-miterlimit="10" x1="4.5" y1="37.7" x2="6" y2="41.6"/>
		<line fill="none" stroke="#010101" stroke-width="0.5" stroke-miterlimit="10" x1="1.9" y1="38.8" x2="8.6" y2="39.1"/>
		<polyline fill="none" stroke="#010101" stroke-width="0.5" stroke-miterlimit="10" points="8.4,52.2 8.3,52.1 8.3,52 8,51.4 
			7,49.5 5.6,46.8 3.6,43.1 		"/>
		<line fill="none" stroke="#010101" stroke-width="0.5" stroke-miterlimit="10" x1="1.9" y1="45.5" x2="11" y2="48.7"/>
		<polyline fill="none" stroke="#010101" stroke-width="0.5" stroke-miterlimit="10" points="6.2,50 7,49.5 8.6,48.4 9.1,48.1 
			10.8,46.9 11.8,46.3 		"/>
		<polyline fill="none" stroke="#010101" stroke-width="0.5" stroke-miterlimit="10" points="6.2,42.1 6.3,41.8 6.3,41.4 6.6,39 
			6.8,37.4 7.1,35.5 7.6,31.9 7.9,29.4 7.9,29 8.1,27.4 8.4,25.7 8.4,25.2 		"/>
		<polyline fill="none" stroke="#010101" stroke-width="0.5" stroke-miterlimit="10" points="3.2,35.6 6.8,37.4 11.8,39.9 8.6,37.2 
			7.1,35.5 4.8,32.7 3,30.7 		"/>
		<polyline fill="none" stroke="#010101" stroke-width="0.5" stroke-miterlimit="10" points="12.8,40.6 20.5,44.5 17.7,39.1 		"/>
		<line fill="none" stroke="#010101" stroke-width="0.5" stroke-miterlimit="10" x1="16.7" y1="39.1" x2="8.8" y2="35"/>
		<line fill="none" stroke="#010101" stroke-width="0.5" stroke-miterlimit="10" x1="14.3" y1="42.1" x2="13.6" y2="51.9"/>
		<line fill="none" stroke="#010101" stroke-width="0.5" stroke-miterlimit="10" x1="13.6" y1="43.3" x2="12.8" y2="46.3"/>
		<line fill="none" stroke="#010101" stroke-width="0.5" stroke-miterlimit="10" x1="11.3" y1="44.5" x2="11.3" y2="46.3"/>
		<line fill="none" stroke="#010101" stroke-width="0.5" stroke-miterlimit="10" x1="7.2" y1="47" x2="21.1" y2="33"/>
		<line fill="none" stroke="#010101" stroke-width="0.5" stroke-miterlimit="10" x1="11" y1="30.3" x2="7.9" y2="34.8"/>
		<polyline fill="none" stroke="#010101" stroke-width="0.5" stroke-miterlimit="10" points="4.6,42.1 12.4,40.6 19.6,39.1 		"/>
		<line fill="none" stroke="#010101" stroke-width="0.5" stroke-miterlimit="10" x1="10.4" y1="35.9" x2="13.3" y2="39.9"/>
		<line fill="none" stroke="#010101" stroke-width="0.5" stroke-miterlimit="10" x1="7.9" y1="41.6" x2="9.1" y2="44.5"/>
		<line fill="none" stroke="#010101" stroke-width="0.5" stroke-miterlimit="10" x1="9.3" y1="39.5" x2="11.3" y2="49.7"/>
		<line fill="none" stroke="#010101" stroke-width="0.5" stroke-miterlimit="10" x1="1.6" y1="37.2" x2="7" y2="29.6"/>
		<polyline fill="none" stroke="#010101" stroke-width="0.5" stroke-miterlimit="10" points="11,27 8.1,27.4 6,27.8 5.7,27.8 
			5.7,27.8 		"/>
		<polyline fill="none" stroke="#010101" stroke-width="0.5" stroke-miterlimit="10" points="4.4,29.1 5.9,31.1 6.5,31.8 		"/>
		<line fill="none" stroke="#010101" stroke-width="0.5" stroke-miterlimit="10" x1="6.6" y1="32.5" x2="13.6" y2="27.4"/>
		<line fill="none" stroke="#010101" stroke-width="0.5" stroke-miterlimit="10" x1="1.9" y1="34.8" x2="0.2" y2="38.6"/>
		<line fill="none" stroke="#010101" stroke-width="0.5" stroke-miterlimit="10" x1="8.4" y1="52.2" x2="24.3" y2="41.6"/>
		<polyline fill="none" stroke="#010101" stroke-width="0.5" stroke-miterlimit="10" points="8.3,52.1 8.3,52.1 8.6,52.1 9,52.1 
			9,52.1 11.4,52.3 15.7,52.5 16,52.5 17.8,52.7 		"/>
		<polyline fill="none" stroke="#010101" stroke-width="0.5" stroke-miterlimit="10" points="8.8,47.1 8.7,47.9 8.6,48.4 8.3,51.7 
			8.3,52 8.3,52 8.3,52.1 		"/>
		<polyline fill="none" stroke="#010101" stroke-width="0.5" stroke-miterlimit="10" points="8.4,25.2 10.2,24.6 10.2,24.6 
			10.3,24.5 10.7,24.4 11.8,24 		"/>
		<line fill="none" stroke="#010101" stroke-width="0.5" stroke-miterlimit="10" x1="12.4" y1="31.8" x2="15.1" y2="30.9"/>
		<line fill="none" stroke="#010101" stroke-width="0.5" stroke-miterlimit="10" x1="16" y1="31.7" x2="16.7" y2="39.5"/>
		<line fill="none" stroke="#010101" stroke-width="0.5" stroke-miterlimit="10" x1="20" y1="40.6" x2="10.1" y2="31.5"/>
		<line fill="none" stroke="#010101" stroke-width="0.5" stroke-miterlimit="10" x1="7.9" y1="29" x2="19.2" y2="29"/>
		<polyline fill="none" stroke="#010101" stroke-width="0.5" stroke-miterlimit="10" points="8.5,30 7.9,29.4 6,27.8 5.9,27.7 		"/>
		<line fill="none" stroke="#010101" stroke-width="0.5" stroke-miterlimit="10" x1="9.8" y1="24" x2="13.3" y2="28.2"/>
		<polyline fill="none" stroke="#010101" stroke-width="0.5" stroke-miterlimit="10" points="17.8,33 13.2,25.8 17.3,25.2 		"/>
		<line fill="none" stroke="#010101" stroke-width="0.5" stroke-miterlimit="10" x1="21.5" y1="34.3" x2="13.9" y2="28.5"/>
		<line fill="none" stroke="#010101" stroke-width="0.5" stroke-miterlimit="10" x1="21.5" y1="38.6" x2="19.6" y2="33.5"/>
		<line fill="none" stroke="#010101" stroke-width="0.5" stroke-miterlimit="10" x1="17.7" y1="38.5" x2="25.9" y2="36.1"/>
		<line fill="none" stroke="#010101" stroke-width="0.5" stroke-miterlimit="10" x1="23" y1="35.3" x2="19.6" y2="46.3"/>
		<line fill="none" stroke="#010101" stroke-width="0.5" stroke-miterlimit="10" x1="23.8" y1="46.3" x2="21.5" y2="45.4"/>
		<polyline fill="none" stroke="#010101" stroke-width="0.5" stroke-miterlimit="10" points="25.4,40 21.5,48.7 24.3,40.3 		"/>
		<line fill="none" stroke="#010101" stroke-width="0.5" stroke-miterlimit="10" x1="23.8" y1="48.9" x2="23.5" y2="46.1"/>
		<polyline fill="none" stroke="#010101" stroke-width="0.5" stroke-miterlimit="10" points="16.7,40 16.5,42.5 16.5,42.9 16.4,45 
			16.3,47 16.2,48.4 16.1,50.4 16,51.9 16,52.5 15.8,55.6 		"/>
		<polyline fill="none" stroke="#010101" stroke-width="0.5" stroke-miterlimit="10" points="13.9,34.8 11.5,29.6 16.7,32.7 		"/>
		<line fill="none" stroke="#010101" stroke-width="0.5" stroke-miterlimit="10" x1="17.8" y1="34.3" x2="23" y2="29"/>
		<line fill="none" stroke="#010101" stroke-width="0.5" stroke-miterlimit="10" x1="21.8" y1="27.7" x2="18.8" y2="32.7"/>
		<polyline fill="none" stroke="#010101" stroke-width="0.5" stroke-miterlimit="10" points="20.4,26.9 18,31.6 14.3,28.2 
			22.3,24.9 		"/>
		<line fill="none" stroke="#010101" stroke-width="0.5" stroke-miterlimit="10" x1="10.4" y1="24.4" x2="22.6" y2="25.8"/>
		<polyline fill="none" stroke="#010101" stroke-width="0.5" stroke-miterlimit="10" points="14.8,22.5 14.4,22.6 14.4,22.6 
			13.4,22.9 13.4,22.9 		"/>
		<line fill="none" stroke="#010101" stroke-width="0.5" stroke-miterlimit="10" x1="16.5" y1="24" x2="14.3" y2="24.8"/>
		<polyline fill="none" stroke="#010101" stroke-width="0.5" stroke-miterlimit="10" points="20.7,25.6 18.6,21.4 18.6,21.4 
			18.3,20.9 18.2,20.6 		"/>
		<polyline fill="none" stroke="#010101" stroke-width="0.5" stroke-miterlimit="10" points="18.7,20.1 19.6,20.5 19.6,20.5 
			22.7,21.6 22.7,21.6 23.9,22.1 24.3,22.2 24.8,22.4 		"/>
		<polyline fill="none" stroke="#010101" stroke-width="0.5" stroke-miterlimit="10" points="16.9,21.7 17.3,21.3 17.5,21.2 
			17.5,21.2 18.2,20.6 18.7,20.1 		"/>
		<line fill="none" stroke="#010101" stroke-width="0.5" stroke-miterlimit="10" x1="15.9" y1="21.2" x2="14.2" y2="22.4"/>
		<polyline fill="none" stroke="#010101" stroke-width="0.5" stroke-miterlimit="10" points="14.1,22.5 14.1,22.5 14.4,22.6 
			14.4,22.6 15.5,22.9 		"/>
		<line fill="none" stroke="#010101" stroke-width="0.5" stroke-miterlimit="10" x1="10.1" y1="32.7" x2="11.9" y2="36.5"/>
		<line fill="none" stroke="#010101" stroke-width="0.5" stroke-miterlimit="10" x1="15" y1="33.1" x2="14.3" y2="40.2"/>
		<line fill="none" stroke="#010101" stroke-width="0.5" stroke-miterlimit="10" x1="19" y1="47.9" x2="12.6" y2="40.8"/>
		<line fill="none" stroke="#010101" stroke-width="0.5" stroke-miterlimit="10" x1="15.1" y1="48.9" x2="20.4" y2="46.6"/>
		<line fill="none" stroke="#010101" stroke-width="0.5" stroke-miterlimit="10" x1="21.8" y1="49.3" x2="19.2" y2="45.5"/>
		<line fill="none" stroke="#010101" stroke-width="0.5" stroke-miterlimit="10" x1="23.5" y1="40.2" x2="17.1" y2="37.1"/>
		<polyline fill="none" stroke="#010101" stroke-width="0.5" stroke-miterlimit="10" points="16,43.3 15.6,44.1 13.9,47.4 13,49.1 
			11.4,52.3 10.9,53.3 		"/>
		<line fill="none" stroke="#010101" stroke-width="0.5" stroke-miterlimit="10" x1="1.6" y1="37.7" x2="5.8" y2="37.9"/>
		<line fill="none" stroke="#010101" stroke-width="0.5" stroke-miterlimit="10" x1="0.2" y1="42.7" x2="3.6" y2="41.4"/>
		<polyline fill="none" stroke="#010101" stroke-width="0.5" stroke-miterlimit="10" points="1.1,37 1.1,43.7 3.3,40.6 7,40.4 		"/>
		<line fill="none" stroke="#010101" stroke-width="0.5" stroke-miterlimit="10" x1="7.9" y1="43.7" x2="4.4" y2="45.8"/>
		<line fill="none" stroke="#010101" stroke-width="0.5" stroke-miterlimit="10" x1="4" y1="48.3" x2="1.6" y2="41.4"/>
		<line fill="none" stroke="#010101" stroke-width="0.5" stroke-miterlimit="10" x1="3.7" y1="33" x2="1.2" y2="33.8"/>
		<line fill="none" stroke="#010101" stroke-width="0.5" stroke-miterlimit="10" x1="16.4" y1="22.6" x2="23.6" y2="24"/>
		<line fill="none" stroke="#010101" stroke-width="0.5" stroke-miterlimit="10" x1="26.7" y1="20.1" x2="20.7" y2="24.4"/>
		<line fill="none" stroke="#010101" stroke-width="0.5" stroke-miterlimit="10" x1="56.2" y1="52.5" x2="65.8" y2="54.5"/>
		<polyline fill="none" stroke="#010101" stroke-width="0.5" stroke-miterlimit="10" points="64.3,55 64.3,54.2 64.4,51.7 
			64.4,51.2 64.5,50.4 		"/>
		<polyline fill="none" stroke="#010101" stroke-width="0.5" stroke-miterlimit="10" points="57.1,53.8 57.2,54.2 57.9,56.5 
			58,57.3 		"/>
		<path fill="none" stroke="#010101" stroke-width="0.5" stroke-miterlimit="10" d="M60.9,54c0,0,0.5,1,0.9,2c0,0.1,0.1,0.2,0.2,0.3
			"/>
		<polyline fill="none" stroke="#010101" stroke-width="0.5" stroke-miterlimit="10" points="56.5,56.6 57.9,56.5 60.8,56.4 
			62,56.3 		"/>
		<line fill="none" stroke="#010101" stroke-width="0.5" stroke-miterlimit="10" x1="55.8" y1="56.6" x2="55.1" y2="58"/>
		<line fill="none" stroke="#010101" stroke-width="0.5" stroke-miterlimit="10" x1="36.6" y1="57.5" x2="35.1" y2="59.7"/>
		<line fill="none" stroke="#010101" stroke-width="0.5" stroke-miterlimit="10" x1="20.9" y1="55.7" x2="16.3" y2="50.6"/>
		<line fill="none" stroke="#010101" stroke-width="0.5" stroke-miterlimit="10" x1="20" y1="49.3" x2="17.1" y2="54.5"/>
		<line fill="none" stroke="#010101" stroke-width="0.5" stroke-miterlimit="10" x1="17.6" y1="57" x2="20.9" y2="54.5"/>
		<path fill="none" stroke="#010101" stroke-width="0.5" stroke-miterlimit="10" d="M36.7,61.3"/>
		<line fill="none" stroke="#010101" stroke-width="0.5" stroke-miterlimit="10" x1="52.9" y1="18.9" x2="51.8" y2="21.1"/>
		<line fill="none" stroke="#010101" stroke-width="0.5" stroke-miterlimit="10" x1="48.7" y1="23.5" x2="46.7" y2="22.2"/>
		<polyline fill="none" stroke="#010101" stroke-width="0.5" stroke-miterlimit="10" points="70.5,38.5 74,36.4 74.2,36.2 74.5,36 
			77.5,34.1 		"/>
	</g>
</g>
</svg>
