<?xml version="1.0" encoding="utf-8"?>
<!-- Generator: Adobe Illustrator 18.1.1, SVG Export Plug-In . SVG Version: 6.00 Build 0)  -->
<svg version="1.2" baseProfile="tiny" id="Layer_1" xmlns="http://www.w3.org/2000/svg" xmlns:xlink="http://www.w3.org/1999/xlink"
	 x="0px" y="0px" viewBox="0 0 55.2 55.2" xml:space="preserve">
<g>
	<path fill="none" stroke="#000000" stroke-linecap="round" stroke-linejoin="round" stroke-miterlimit="10" d="M54.4,31.6
		c-1.6,3.2-9.4,4.3-26-8C20,16.9,14.5,9.2,14.4,4.6c0-0.8,0-2,1.1-2.9C11.7,5.1-1,19.3,0.6,33.4c1.6,14.2,14.6,20.2,20.5,20.9
		c3.8,0.5,8.2,0,12.3-1.7C42.2,49.2,50.6,40.4,54.4,31.6z"/>
	<path fill="none" stroke="#000000" stroke-linecap="round" stroke-linejoin="round" stroke-miterlimit="10" d="M43.7,25.3
		c-0.8,1.6-4.7,2-13-4.2c-4.2-3.3-6.7-6.4-6.7-9c0-0.7-0.3-2.5,2.3-2.5c2.6,0,7,1.9,11.8,6C40.4,17.5,45.1,22.2,43.7,25.3z"/>
	<path fill="none" stroke="#000000" stroke-linecap="round" stroke-linejoin="round" stroke-miterlimit="10" d="M19.5,0.7
		c5.3,0.1,14.1,3.7,23.6,12c8.1,6.9,13.1,15.1,11.4,18.9c-1.6,3.2-9.4,4.3-26-8C20,16.9,14.5,9.2,14.4,4.6
		C14.4,3.2,14.4,0.8,19.5,0.7z"/>
	<path fill="none" stroke="#000000" stroke-linecap="round" stroke-linejoin="round" stroke-miterlimit="10" d="M6.2,13.2
		c0.1,2.2,1.3,11.1,15.2,21.5C35.1,45,43.4,44.8,46.9,43"/>
	<path fill="none" stroke="#000000" stroke-linecap="round" stroke-linejoin="round" stroke-miterlimit="10" d="M16.1,30.3
		c-1.1,3.4-2.1,8.9-5.8,12.2c-0.2,0.9,0,2.4,1.6,3.5c1.6,1.1,2.8,1.6,4.4,1.3c0.5-0.9,5.7-7.4,10.9-8.6"/>
	<path fill="none" stroke="#000000" stroke-linecap="round" stroke-linejoin="round" stroke-miterlimit="10" d="M11,41.8
		c-0.4,0-0.8,0.1-1.1,0.3c-0.7,0.5-1.2,2.8,1,4.6c2.2,1.8,4.5,2.3,5.8,1.3c0.5-0.4,0.5-1,0.2-1.7"/>
</g>
</svg>
