<?xml version="1.0" encoding="utf-8"?>
<!-- Generator: Adobe Illustrator 18.1.1, SVG Export Plug-In . SVG Version: 6.00 Build 0)  -->
<svg version="1.2" baseProfile="tiny" id="Layer_1" xmlns="http://www.w3.org/2000/svg" xmlns:xlink="http://www.w3.org/1999/xlink"
	 x="0px" y="0px" viewBox="0 0 55 55" xml:space="preserve">
<rect x="5.8" y="4.9" fill="none" stroke="#000000" stroke-miterlimit="10" width="2.7" height="2.7"/>
<rect x="16.3" y="4.9" fill="none" stroke="#000000" stroke-miterlimit="10" width="2.7" height="2.7"/>
<rect x="26.7" y="4.9" fill="none" stroke="#000000" stroke-miterlimit="10" width="2.7" height="2.7"/>
<rect x="37.2" y="4.9" fill="none" stroke="#000000" stroke-miterlimit="10" width="2.7" height="2.7"/>
<rect x="46.6" y="6.9" transform="matrix(0.9036 0.4283 -0.4283 0.9036 8.159 -19.7349)" fill="none" stroke="#000000" stroke-miterlimit="10" width="2.7" height="2.7"/>
<rect x="47" y="48" fill="none" stroke="#000000" stroke-miterlimit="10" width="2.7" height="2.7"/>
<rect x="36.6" y="48" fill="none" stroke="#000000" stroke-miterlimit="10" width="2.7" height="2.7"/>
<rect x="26.1" y="48" fill="none" stroke="#000000" stroke-miterlimit="10" width="2.7" height="2.7"/>
<rect x="15.6" y="48" fill="none" stroke="#000000" stroke-miterlimit="10" width="2.7" height="2.7"/>
<rect x="6.2" y="46" transform="matrix(-0.9031 -0.4293 0.4293 -0.9031 -5.9003 93.339)" fill="none" stroke="#000000" stroke-miterlimit="10" width="2.7" height="2.7"/>
<path fill="none" stroke="#000000" stroke-miterlimit="10" d="M0.5,0.5v11.3h37.9c0,0,14.5-1,16.1,10.6c0-9.9,0-10.4,0-10.4
	S54.8,0.5,37.9,0.5C24.5,0.5,0.5,0.5,0.5,0.5z"/>
<g>
	<path fill="none" stroke="#000000" stroke-miterlimit="10" d="M0.5,33c0,0.1,0,0.2,0,0.3c0,0.1,0,0.2,0,0.3
		C0.5,33.4,0.5,33.2,0.5,33z"/>
	<path fill="none" stroke="#000000" stroke-miterlimit="10" d="M6.7,41.3c0.2-1.9,1.3-4.6,6-6.1c3.5-1.1,24.2-2.3,24.2-2.3
		s17-0.1,17.6-10.4c-0.6-4.4-3.2-7.1-6.1-8.6c-0.1,2.1-1.2,4.9-6.1,6.1c-6.7,1.7-24.2,2.3-24.2,2.3S1.2,21.9,0.6,32.7
		C1.2,37.2,3.8,39.8,6.7,41.3z"/>
</g>
<path fill="none" stroke="#000000" stroke-miterlimit="10" d="M54.5,54.5V43.3H16.6c0,0-14.5,1-16.1-10.6c0,9.9,0,10.4,0,10.4
	S0.2,54.5,17.1,54.5C30.5,54.5,54.5,54.5,54.5,54.5z"/>
</svg>
