<?xml version="1.0" encoding="utf-8"?>
<!-- Generator: Adobe Illustrator 18.1.1, SVG Export Plug-In . SVG Version: 6.00 Build 0)  -->
<svg version="1.2" baseProfile="tiny" id="Layer_1" xmlns="http://www.w3.org/2000/svg" xmlns:xlink="http://www.w3.org/1999/xlink"
	 x="0px" y="0px" viewBox="0 0 55.2 55.2" xml:space="preserve">
<g>
	<path fill="none" stroke="#000000" stroke-miterlimit="10" d="M35.7,38.9c0,0.6,0,1.3,0,2.1c0,1.1,0,2.3,0,3.5c0,1.2,0,2.3,0,3.1
		c0,0.3,0,0.5,0,0.7c0.1,2.1-2.6,3.7-4.7,4.2c-2.1,0.6-0.7,2.2-3.8,2.2c-3.1,0-1.6-1.6-3.7-2.2c-1.8-0.5-4-1.7-4.5-3.4
		c-0.1-0.3-0.1-0.5-0.1-0.9c0-0.5,0.1-1.3,0.1-2.3v0c0-1.1,0-2.3,0-3.5c0-1.2,0-2.3,0-3.2v0"/>
	<g id="XMLID_23_">
		<path id="XMLID_26_" fill="none" stroke="#000000" stroke-linecap="round" stroke-miterlimit="10" d="M17.9,48.8
			c0.8,0.4,9.3,2.8,18.6-1.6"/>
		<path id="XMLID_25_" fill="none" stroke="#000000" stroke-linecap="round" stroke-miterlimit="10" d="M17.9,45.6
			c0.8,0.4,9.3,2.8,18.6-1.6"/>
		<path id="XMLID_24_" fill="none" stroke="#000000" stroke-linecap="round" stroke-miterlimit="10" d="M18,42.1
			c0.8,0.4,9.3,2.8,18.6-1.6"/>
	</g>
	<path id="XMLID_22_" fill="none" stroke="#000000" stroke-miterlimit="10" d="M14.8,30.8c0,0,2.1,3,1.9,7c0,0,9.7,8,20.2,0.1
		c0,0,0.3-3.9,2.9-7"/>
	<path id="XMLID_21_" fill="none" stroke="#000000" stroke-miterlimit="10" d="M44.4,10.7c0,0,0.1,13.1-4.6,20.3
		c0,0-11.2,7.5-25-0.1c0,0-4.1-6.1-4.1-20.3"/>
	<path fill="none" stroke="#000000" stroke-miterlimit="10" d="M19.6,13.9c0.3,4.3,1.6,13.7,7.9,13.7c6.5,0,7.8-9.8,8.1-13.7"/>
	
		<ellipse id="XMLID_20_" transform="matrix(1 5.431075e-03 -5.431075e-03 1 4.134399e-02 -0.1498)" fill="none" stroke="#000000" stroke-miterlimit="10" cx="27.6" cy="7.5" rx="18.7" ry="7"/>
	<path id="XMLID_19_" fill="none" stroke="#000000" stroke-miterlimit="10" d="M39.9,7.4c0,2.2-5.6,4-12.5,4
		C20.5,11.3,15,9.5,15,7.3c0-2.2,5.6-4,12.5-4C34.4,3.3,39.9,5.2,39.9,7.4z"/>
</g>
</svg>
