<?xml version="1.0" encoding="utf-8"?>
<!-- Generator: Adobe Illustrator 18.1.1, SVG Export Plug-In . SVG Version: 6.00 Build 0)  -->
<svg version="1.2" baseProfile="tiny" id="Layer_1" xmlns="http://www.w3.org/2000/svg" xmlns:xlink="http://www.w3.org/1999/xlink"
	 x="0px" y="0px" viewBox="0 0 206.2 206.2" xml:space="preserve">
<path fill="none" stroke="#121515" stroke-miterlimit="10" d="M124.3,99.6c-6.2-1.6-31.9-9.1-43-9.7l-17,0l-17,0
	c-11.1,0.6-36.8,8.1-43,9.7c-6.2,1.5-3.4,3.1-2.1,4c2.6,2.1,35.3,23.7,62,23.7c26.7,0,59.5-21.6,62-23.6
	C127.7,102.7,130.5,101.1,124.3,99.6z"/>
<line fill="none" stroke="#121515" stroke-miterlimit="10" x1="5.2" y1="99.3" x2="123.4" y2="99.4"/>
<line fill="none" stroke="#121515" stroke-miterlimit="10" x1="4" y1="104.7" x2="124.7" y2="104.8"/>
<path fill="none" stroke="#121515" stroke-miterlimit="10" d="M163.2,126.9c10.7,2.7,20.2-5,24.1-8.3c3.9-3.3,14.4-12,17.2-14.9
	c1.9-2.1,1.9-3.5-2.9-5.4s-23.3-10.3-33.9-10c-10.6,0.3-13.6,2-17.8,3.7c-4.2,1.7-15.7,6.5-17.7,7.4c-1.9,0.9-3.5,2.2-0.3,5.2
	c3.2,3,15.3,14.2,18.9,16.6C154.2,123.6,157.4,125.4,163.2,126.9z"/>
<line fill="none" stroke="#121515" stroke-miterlimit="10" x1="131.9" y1="104.6" x2="203.4" y2="104.6"/>
<line fill="none" stroke="#121515" stroke-miterlimit="10" x1="133.3" y1="98.8" x2="202.6" y2="98.7"/>
<path fill="none" stroke="#121515" stroke-miterlimit="10" d="M55.3,78.7c16.1,5.4,36.9,8.7,59.7,8.7s43.6-3.3,59.7-8.7H55.3z"/>
<line fill="none" stroke="#121515" stroke-miterlimit="10" x1="60.6" y1="89.5" x2="60.6" y2="80.4"/>
<line fill="none" stroke="#121515" stroke-miterlimit="10" x1="157.9" y1="89.2" x2="157.9" y2="83.2"/>
<line fill="none" stroke="#121515" stroke-miterlimit="10" x1="167.7" y1="88.2" x2="167.7" y2="80.9"/>
<line fill="none" stroke="#121515" stroke-miterlimit="10" x1="70.7" y1="83.2" x2="70.7" y2="89.8"/>
</svg>
