<?xml version="1.0" encoding="utf-8"?>
<!-- Generator: Adobe Illustrator 18.1.1, SVG Export Plug-In . SVG Version: 6.00 Build 0)  -->
<svg version="1.2" baseProfile="tiny" id="Layer_1" xmlns="http://www.w3.org/2000/svg" xmlns:xlink="http://www.w3.org/1999/xlink"
	 x="0px" y="0px" viewBox="0 0 142.6 142.6" xml:space="preserve">
<path fill="none" stroke="#121515" stroke-miterlimit="10" d="M129.3,115.4c-6-1.5-30.8-8.8-41.5-9.4H71.3H54.9
	c-10.7,0.6-35.5,7.9-41.5,9.4s-3.2,3-2,3.9c2.5,2,34.1,22.9,60,22.9c25.8,0,57.5-20.9,60-22.9C132.5,118.4,135.3,116.9,129.3,115.4z
	"/>
<line fill="none" stroke="#121515" stroke-miterlimit="10" x1="14.2" y1="115.1" x2="128.4" y2="115.1"/>
<line fill="none" stroke="#121515" stroke-miterlimit="10" x1="13" y1="120.4" x2="129.6" y2="120.4"/>
<line fill="none" stroke="#121515" stroke-linecap="round" stroke-linejoin="round" stroke-miterlimit="10" x1="71.3" y1="104.1" x2="71.3" y2="12.9"/>
<path fill="none" stroke="#121515" stroke-linecap="round" stroke-linejoin="round" stroke-miterlimit="10" d="M71.3,104.1
	c0-3.2-1.3-2.9,8.7-12.5c10-9.6,20.7-21,6-31.7C71.3,49.2,48.7,41.7,54.7,26.7c1.7-6.2,10.6-14.6,10.6-14.6"/>
<path fill="none" stroke="#121515" stroke-linecap="round" stroke-linejoin="round" stroke-miterlimit="10" d="M54.9,106
	c5.1-1.2,10.6-1.8,16.4-1.8c5.7,0,11.2,0.6,16.4,1.8"/>
<path fill="none" stroke="#121515" stroke-miterlimit="10" d="M57,0.5c0,6.8,6.4,12.4,14.3,12.4c7.9,0,14.3-5.6,14.3-12.4H57z"/>
</svg>
