<?xml version="1.0" encoding="utf-8"?>
<!-- Generator: Adobe Illustrator 18.1.1, SVG Export Plug-In . SVG Version: 6.00 Build 0)  -->
<svg version="1.2" baseProfile="tiny" id="Layer_1" xmlns="http://www.w3.org/2000/svg" xmlns:xlink="http://www.w3.org/1999/xlink"
	 x="0px" y="0px" viewBox="0 0 79 79" xml:space="preserve">
<path fill="none" stroke="#121515" stroke-miterlimit="10" d="M36.5,75.7C36.5,75.6,36.5,75.6,36.5,75.7L36.5,75.7
	c0.1-0.2,0.2-0.5,0.3-0.7c2.2-4.6,7-16.4,8.3-18.9l0-33C44.2,19.8,39.1,8.6,36.9,4c-0.1-0.2-0.2-0.4-0.3-0.6v0c0,0,0,0,0,0"/>
<path fill="none" stroke="#121515" stroke-miterlimit="10" d="M31.6,3.8L31.6,3.8c-8.7,16.7-11.1,27.9-11.1,35.7s2.4,19.1,11.1,35.7
	v0"/>
<path fill="none" stroke="#121515" stroke-miterlimit="10" d="M31.6,3.8v34.7v2v34.7c0.8,1.8,1.3,3.3,2.1,3.3s2.1-1.4,2.8-2.9V40.5
	v-2V3.4c-0.7-1.5-2.1-2.9-2.8-2.9S32.4,2,31.6,3.8z"/>
<polygon fill="none" stroke="#121515" stroke-miterlimit="10" points="45.1,55.9 58.5,59.9 58.5,19.1 45.1,23.1 "/>
</svg>
