<?xml version="1.0" encoding="utf-8"?>
<!-- Generator: Adobe Illustrator 18.1.1, SVG Export Plug-In . SVG Version: 6.00 Build 0)  -->
<svg version="1.2" baseProfile="tiny" id="Layer_1" xmlns="http://www.w3.org/2000/svg" xmlns:xlink="http://www.w3.org/1999/xlink"
	 x="0px" y="0px" viewBox="0 0 101.8 101.8" xml:space="preserve">
<path fill="none" stroke="#121515" stroke-miterlimit="10" d="M69.4,95.2c0,0-5.9-63.1-6-65.3c-0.1-2.2,3-2.6,3.8-2.7
	c0.8-0.1,0.7-0.6,0.6-0.9c-1.5,0.2-9,0.4-16.8,0.4c-7.8,0-15.3-0.2-16.8-0.4c-0.1,0.3-0.2,0.7,0.6,0.9c0.8,0.1,3.9,0.5,3.8,2.7
	c-0.1,2.2-6,65.3-6,65.3c-0.1,0.8,0.4,1.5,0.6,1.8c0.2,0.4,0.8,1.1,1.2,1.3c0.3,0.2,3,2.5,14.3,2.9l0,0.1c0.8,0,1.6,0,2.4,0
	c0.8,0,1.6,0,2.4,0l0-0.1c11.3-0.4,14-2.7,14.3-2.9c0.4-0.2,1-1,1.2-1.3C69,96.6,69.5,95.9,69.4,95.2z"/>
<path fill="none" stroke="#121515" stroke-miterlimit="10" d="M12.4,17.5C12.4,17.5,12.4,17.5,12.4,17.5L12.4,17.5
	c0.3,0.1,0.5,0.3,0.7,0.4c4.9,2.4,17.5,7.5,21,8.4l16.8,0.4l16.7-0.4c3.5-1,16.1-6.1,21-8.4c0.2-0.1,0.5-0.2,0.7-0.3h0c0,0,0,0,0,0"
	/>
<path fill="none" stroke="#121515" stroke-miterlimit="10" d="M88.9,12.3L88.9,12.3C71.2,3.1,59.3,0.5,50.9,0.5S30.6,3.1,12.8,12.3
	h0"/>
<path fill="none" stroke="#121515" stroke-miterlimit="10" d="M88.9,12.3H12.8c-1.9,0.8-3.5,1.4-3.5,2.2s1.5,2.3,3.1,3h76.9
	c1.6-0.8,3.1-2.2,3.1-3S90.8,13.1,88.9,12.3z"/>
</svg>
