<?xml version="1.0" encoding="iso-8859-1"?>
<!DOCTYPE svg PUBLIC "-//W3C//DTD SVG 1.1//EN" "http://www.w3.org/Graphics/SVG/1.1/DTD/svg11.dtd">
<svg version="1.1" id="Calque_1" xmlns="http://www.w3.org/2000/svg" xmlns:xlink="http://www.w3.org/1999/xlink" x="0px" y="0px"
	 width="600px" height="600px" viewBox="50 50 500 500" style="enable-background:new 0 0 600 600;" xml:space="preserve">
<path id="RaspberryPi_1_" d="M465.237,329.76c0.047,0.506,0.065,1.018,0.057,1.525l-0.084,4.733
	c-0.008,0.396-0.031,0.793-0.074,1.187l-0.229,2.147c-0.013,0.106-0.023,0.213-0.037,0.319l-0.609,4.683
	c-0.063,0.496-0.155,0.983-0.274,1.472l-1.136,4.641c-0.116,0.477-0.26,0.947-0.426,1.408c0,0-1.703,4.686-1.729,4.75l-0.672,1.764
	c-0.146,0.383-0.31,0.756-0.486,1.125l-2.109,4.31c-0.207,0.422-0.436,0.836-0.688,1.233l-2.58,4.121
	c-0.244,0.392-0.51,0.771-0.791,1.135c0,0-3.06,3.924-3.07,3.941l-0.891,1.131c-0.17,0.219-0.357,0.422-0.545,0.629
	c-1.414,7.176-3.338,14.168-5.728,20.943c0,0.112,0.013,0.227,0.008,0.34c0,0-0.047,1.918-0.047,1.957l-0.18,5.522
	c-0.018,0.478-0.057,0.953-0.123,1.426l-0.768,5.515c-0.066,0.471-0.156,0.936-0.271,1.395l-1.352,5.451
	c-0.115,0.457-0.252,0.908-0.412,1.35l-1.928,5.326c-0.064,0.174-0.129,0.347-0.199,0.517l-0.527,1.291
	c-0.106,0.263-0.225,0.521-0.346,0.774l-2.43,5.021c-0.201,0.416-0.425,0.819-0.668,1.215l-2.951,4.78
	c-0.24,0.394-0.502,0.771-0.783,1.133l-3.447,4.492c-0.274,0.359-0.57,0.705-0.881,1.035l-3.906,4.15
	c-0.309,0.326-0.631,0.639-0.969,0.932l-4.32,3.763c-0.338,0.295-0.688,0.569-1.055,0.83l-4.693,3.332
	c-0.36,0.258-0.737,0.496-1.123,0.717l-5.012,2.86c-0.383,0.22-0.774,0.418-1.18,0.601l-5.271,2.36
	c-0.401,0.181-0.811,0.34-1.229,0.48l-5.242,1.76c-11.193,8.521-23.604,15.525-36.93,20.699l-0.312,0.385
	c-0.221,0.289-0.459,0.57-0.707,0.844c-0.037,0.041-3.856,4.146-3.856,4.146c-0.328,0.354-0.676,0.688-1.039,1.004l-4.099,3.554
	c-0.331,0.289-0.676,0.559-1.034,0.812l-4.41,3.131c-0.076,0.056-0.152,0.106-0.23,0.16l-0.432,0.291
	c-0.289,0.196-0.584,0.383-0.889,0.558l-4.843,2.766c-0.389,0.223-0.791,0.426-1.2,0.609l-5.062,2.26
	c-0.414,0.184-0.836,0.348-1.264,0.49l-5.228,1.729c-0.434,0.145-0.875,0.266-1.319,0.363l-5.337,1.186
	c-0.45,0.1-0.905,0.178-1.366,0.23l-5.384,0.629c-0.463,0.053-0.928,0.084-1.395,0.09l-5.372,0.067c0,0-1.626,0.021-1.676,0.021
	c-0.415,0-0.829-0.021-1.242-0.06l-5.432-0.5c-0.475-0.043-0.944-0.11-1.412-0.205l-5.299-1.058
	c-0.471-0.096-0.937-0.213-1.394-0.356l-5.117-1.603c-0.161-0.051-0.32-0.104-0.479-0.158l-1.718-0.608
	c-0.295-0.104-0.587-0.222-0.875-0.347l-4.945-2.146c-0.442-0.192-0.876-0.41-1.296-0.649l-4.656-2.646
	c-0.421-0.238-0.828-0.5-1.222-0.783l-4.321-3.113c-0.063-0.045-0.123-0.088-0.183-0.135l-1.589-1.184
	c-0.326-0.244-0.64-0.502-0.943-0.771l-3.958-3.549c-0.356-0.319-0.695-0.658-1.017-1.012l-2.851-3.162
	c-15.566-5.615-29.949-13.703-42.677-23.789l-2.741-1.162l-2.531-1.078c-0.464-0.199-0.918-0.422-1.358-0.672l-4.49-2.539
	c-0.398-0.225-0.785-0.471-1.158-0.734c0,0-2.389-1.692-2.438-1.727l-4.14-3.016c-0.42-0.308-0.82-0.638-1.202-0.986l-3.746-3.451
	c-0.271-0.25-0.532-0.51-0.782-0.781l-1.924-2.088c-0.101-0.108-0.2-0.221-0.298-0.332l-3.289-3.813
	c-0.335-0.39-0.648-0.795-0.938-1.222l-2.836-4.16c-0.163-0.24-0.32-0.485-0.467-0.735l-1.407-2.383
	c-0.108-0.185-0.213-0.371-0.314-0.562l-2.319-4.385c-0.231-0.436-0.437-0.885-0.618-1.342l-1.838-4.637
	c-0.108-0.273-0.208-0.549-0.298-0.83l-0.796-2.465c-0.057-0.18-0.112-0.359-0.163-0.541l-1.307-4.709
	c-0.124-0.449-0.226-0.902-0.303-1.361l-0.823-4.862c-0.061-0.356-0.097-0.72-0.129-1.08c-4.152-9.385-7.379-19.269-9.569-29.535
	l-0.911-1.008c-0.188-0.207-0.37-0.42-0.543-0.638l-1.925-2.408c-0.165-0.209-0.324-0.422-0.478-0.639l-2.419-3.42
	c-0.294-0.416-0.564-0.848-0.809-1.295c0,0-1.51-2.744-1.526-2.775l-1.958-3.627c-0.253-0.465-0.477-0.946-0.673-1.44l-1.53-3.858
	c-0.088-0.222-0.17-0.443-0.245-0.67l-0.927-2.75c-0.089-0.263-0.169-0.529-0.242-0.795l-1.062-3.937
	c-0.129-0.481-0.233-0.972-0.31-1.465c0,0-0.651-4.229-0.662-4.301l-0.36-2.619c-0.055-0.397-0.093-0.799-0.112-1.199l-0.193-4.028
	c-0.022-0.457-0.019-0.912,0.004-1.369l0.218-4.097c0.006-0.092,0.01-0.185,0.017-0.276l0.168-2.281
	c0.026-0.346,0.064-0.689,0.117-1.031l0.592-3.92c0.062-0.412,0.144-0.819,0.244-1.225l0.968-3.916
	c0.096-0.387,0.209-0.771,0.338-1.148l1.332-3.877l0.537-1.545c0.122-0.352,0.258-0.696,0.407-1.037l1.575-3.565
	c0.151-0.342,0.316-0.679,0.494-1.004l1.889-3.47c0.171-0.313,0.356-0.623,0.552-0.922l2.181-3.342
	c0.194-0.297,0.399-0.586,0.615-0.866l2.453-3.184c0.211-0.274,0.436-0.542,0.667-0.8l2.705-3.002
	c0.229-0.255,0.468-0.5,0.717-0.738l2.931-2.793c0.248-0.237,0.505-0.464,0.77-0.681l3.131-2.561
	c0.264-0.216,0.537-0.422,0.815-0.617l2.063-1.443c1.071-2.222,2.193-4.412,3.368-6.573c-0.025-0.277-0.045-0.555-0.052-0.834
	l-0.076-2.735c-0.006-0.248-0.006-0.497,0-0.744l0.112-4.074c0.012-0.47,0.049-0.938,0.111-1.403l0.545-4.118
	c0.014-0.11,0.03-0.219,0.046-0.328l0.435-2.774c0.053-0.333,0.117-0.664,0.194-0.993l0.919-3.917
	c0.096-0.415,0.214-0.825,0.35-1.228l1.31-3.896c0.064-0.189,0.131-0.376,0.203-0.562l0.85-2.198
	c0.073-0.191,0.151-0.38,0.233-0.568l1.58-3.596c0.157-0.358,0.33-0.709,0.517-1.053l1.921-3.511
	c0.177-0.325,0.368-0.642,0.572-0.951l2.236-3.397c0.197-0.298,0.405-0.589,0.625-0.872l2.535-3.253l0.769-0.981
	c0.207-0.265,0.424-0.521,0.65-0.769l2.595-2.846c0.229-0.251,0.467-0.494,0.714-0.727l2.827-2.667
	c0.243-0.228,0.493-0.448,0.752-0.659l3.03-2.463c0.258-0.209,0.524-0.409,0.798-0.599l3.209-2.238
	c0.272-0.191,0.552-0.37,0.838-0.54l3.362-1.993c0.286-0.17,0.578-0.329,0.877-0.477l3.372-1.679
	c-3.088-0.636-6.214-1.529-9.092-2.785c-3.324-1.452-5.624-4.422-6.299-7.834c-4.468-1.711-7.803-3.487-9.972-5.314
	c-2.533-2.135-3.89-5.243-3.855-8.411c-2.809-1.809-5.608-3.884-8.049-6.188c-2.729-2.574-3.866-6.294-3.226-9.823
	c-1.541-1.375-3.062-2.855-4.475-4.427c-2.724-3.025-3.489-7.273-2.117-10.997c-1.508-1.69-2.948-3.46-4.168-5.23
	c-2.241-3.251-2.504-7.395-0.852-10.84c-1.382-1.9-2.432-3.78-3.142-5.632c-1.553-4.045-0.548-8.627,2.556-11.651
	c0.082-0.078,0.164-0.157,0.248-0.233c-2.777-3.335-3.302-8.022-1.305-11.899c1.872-3.634,5.61-5.876,9.634-5.876
	c0.379,0,0.761,0.02,1.146,0.06c1.347,0.143,2.667,0.246,3.98,0.313c1.35-2.691,3.789-4.756,6.799-5.588
	c2.72-0.754,5.702-1.136,8.864-1.136c1.277,0,2.543,0.061,3.785,0.17c1.83-2.325,4.586-3.87,7.699-4.105
	c0.582-0.044,1.188-0.067,1.804-0.067c1.475,0,3.033,0.136,4.618,0.366c2.033-2.467,5.094-3.947,8.361-3.947
	c0.54,0,1.083,0.04,1.63,0.123c3.024,0.458,5.813,1.126,8.338,1.9c1.971-1.745,4.53-2.726,7.187-2.726
	c0.935,0,1.883,0.122,2.82,0.376c2.946,0.792,5.746,2.016,8.298,3.411c1.663-0.982,3.572-1.511,5.521-1.511
	c1.281,0,2.579,0.228,3.838,0.705c2.26,0.855,4.403,2.09,6.367,3.49c1.5-0.735,3.136-1.106,4.772-1.106
	c2.042,0,4.086,0.576,5.882,1.735c2.58,1.667,5.313,4.162,7.825,6.77c0.836-0.202,1.688-0.301,2.537-0.301
	c2.563,0,5.098,0.908,7.108,2.654c15.314,13.295,20.668,31.937,21.735,36.234c0.002,0.005,0.004,0.009,0.004,0.014
	c0.002-0.005,0.005-0.009,0.005-0.014c1.065-4.297,6.422-22.939,21.735-36.234c2.01-1.746,4.545-2.654,7.107-2.654
	c0.85,0,1.701,0.099,2.537,0.301c2.514-2.607,5.245-5.103,7.825-6.77c1.795-1.159,3.843-1.735,5.882-1.735
	c1.639,0,3.272,0.371,4.772,1.106c1.963-1.4,4.107-2.635,6.367-3.49c1.258-0.477,2.555-0.705,3.836-0.705
	c1.949,0,3.859,0.528,5.521,1.511c2.553-1.395,5.352-2.619,8.299-3.411c0.938-0.254,1.885-0.376,2.819-0.376
	c2.658,0,5.218,0.98,7.188,2.726c2.522-0.774,5.312-1.442,8.338-1.9c0.547-0.083,1.09-0.123,1.629-0.123
	c3.269,0,6.328,1.479,8.361,3.947c1.586-0.23,3.145-0.366,4.617-0.366c0.616,0,1.223,0.022,1.805,0.067
	c3.113,0.235,5.869,1.781,7.701,4.105c1.239-0.109,2.506-0.17,3.785-0.17c3.159,0,6.143,0.382,8.862,1.136
	c3.011,0.833,5.447,2.897,6.799,5.588c1.312-0.067,2.634-0.17,3.98-0.313c0.383-0.04,0.764-0.06,1.145-0.06
	c4.025,0,7.763,2.242,9.634,5.876c1.996,3.876,1.473,8.564-1.306,11.899c0.084,0.076,0.166,0.155,0.248,0.233
	c3.104,3.023,4.109,7.606,2.558,11.651c-0.711,1.853-1.761,3.732-3.144,5.632c1.652,3.445,1.39,7.588-0.854,10.84
	c-1.22,1.77-2.658,3.54-4.168,5.23c1.373,3.724,0.606,7.971-2.117,10.997c-1.414,1.572-2.935,3.053-4.476,4.427
	c0.642,3.528-0.498,7.249-3.225,9.823c-2.443,2.304-5.242,4.379-8.051,6.188c0.035,3.168-1.322,6.276-3.854,8.411
	c-2.17,1.827-5.506,3.604-9.975,5.314c-0.674,3.413-2.973,6.383-6.297,7.834c-3.414,1.49-7.179,2.474-10.812,3.118
	c-0.18,0.475-0.389,0.933-0.627,1.374l1.006,0.518c0.412,0.211,0.812,0.443,1.199,0.696c0,0,3.674,2.394,3.693,2.408l2.184,1.438
	c0.379,0.251,0.746,0.52,1.101,0.808l3.455,2.815c0.387,0.312,0.752,0.647,1.102,1.001l5.104,5.188
	c0.357,0.364,0.691,0.748,1.009,1.15l2.772,3.546c0.23,0.294,0.447,0.597,0.652,0.91l1.604,2.439
	c0.082,0.126,0.162,0.255,0.242,0.384l2.379,3.899c0.279,0.456,0.529,0.929,0.752,1.415l1.9,4.149
	c0.068,0.154,0.137,0.31,0.203,0.466l1.146,2.779c0.144,0.343,0.271,0.689,0.383,1.041l1.408,4.399
	c0.146,0.448,0.265,0.902,0.359,1.363c0,0,0.641,3.061,0.654,3.127l0.883,4.564c0.1,0.526,0.17,1.06,0.209,1.594l0.338,4.691
	c0.02,0.24,0.031,0.482,0.033,0.724l0.055,2.903c0.004,0.284,0.002,0.568-0.012,0.852l-0.052,1.152
	c1.062,1.9,2.085,3.826,3.066,5.776l3.441,2.403c0.356,0.25,0.705,0.517,1.035,0.801l1.434,1.222l3.547,3.049
	c0.355,0.306,0.695,0.63,1.018,0.97l3.152,3.338c0.328,0.348,0.637,0.712,0.928,1.092l2.767,3.631
	c0.113,0.147,0.223,0.297,0.33,0.45l1.242,1.78c0.176,0.25,0.342,0.504,0.5,0.767l2.391,3.965c0.258,0.426,0.49,0.865,0.699,1.317
	l1.938,4.196c0.117,0.254,0.228,0.513,0.328,0.771l0.814,2.098c0.079,0.211,0.157,0.424,0.229,0.64l1.469,4.426
	c0.16,0.481,0.295,0.976,0.398,1.474l0.965,4.58c0.068,0.319,0.125,0.643,0.17,0.967l0.301,2.229
	c0.025,0.18,0.048,0.361,0.064,0.541L465.237,329.76 M174.783,363.885l2.079-4.307l0.234-0.713l0.957-3.41l0.425-0.822l0.869-2.334
	l0.502-1.545l0.545-1.529l0.887-3.44l0.536-2.326l0.58-4.035l0.177-0.604l0.356-1.365l0.595-3.646l0.09-0.401l0.45-2.224
	l0.253-2.188l0.37-3.683l0.039-0.461v-1.483l0.084-1.117l0.141-2.193l0.089-1.746v-0.053l-0.053-1.47l-0.059-1.229l-0.021-0.33
	l0.017-0.662l0.014-0.854l0.003-0.763l-0.007-0.694l-0.015-0.644l-0.023-0.604l-0.031-0.576l-0.037-0.558l-0.045-0.547l-0.054-0.543
	l-0.064-0.547l-0.004-0.026l-0.019-0.558l-0.034-0.615l-0.046-0.662l-0.059-0.721l-0.078-0.807l-0.103-0.916l-0.136-1.076
	l-0.086-0.613l-0.083-0.334l-0.034-0.246l-0.231-1.428l-0.334-1.812l-0.131-0.639l-0.459-1.197l-0.171-0.403l-0.521-1.819
	l-0.069-0.127l-1.215-1.934l-0.302-0.417l-0.693-0.49l-0.212-0.285l-0.347-0.659l-0.189-0.306l-1.542-0.953l-0.16-0.016
	l-1.924,0.116l-0.449,0.164l-1.323,0.598l-1.488,0.875l-3.303,2.31l-3.132,2.561l-2.931,2.796l-2.704,3.001l-2.454,3.184
	l-2.18,3.342l-1.887,3.467l-1.575,3.566l-0.524,1.51l-1.331,3.877l-0.968,3.914l-0.593,3.92l-0.169,2.283l-0.218,4.096l0.193,4.029
	l0.36,2.619l0.63,4.084l1.062,3.934l0.925,2.75l1.531,3.861l1.958,3.625l1.476,2.686l2.419,3.422l1.924,2.408l2.044,2.258
	l0.456,0.451l0.609,0.318l1.264,0.783l0.362,0.084l1.652-0.211l0.49-0.277l1.86-0.883l0.764-0.619l0.933-1.178l0.781-0.836
	l0.462-0.68l0.598-1.34l1.557-1.834L174.783,363.885 M257.957,234.849l0.375,2.073l0.311,0.921l0.511,0.941l0.721,1.001l0.302,0.73
	l0.516,0.905l0.436,0.812l1.105,1.574l0.277,0.312l1.007,0.944l0.11,0.112l1.473,1.254l1.146,0.814l0.401,0.315l1.589,1.049
	l0.628,0.353l1.008,0.625l1.588,0.834l0.112,0.066l1.748,0.873l0.818,0.343l1.009,0.477l1.806,0.724l0.102,0.045l1.998,0.758
	l1.011,0.319l1.102,0.399l2.247,0.664l0.176,0.042l2.221,0.615l2.052,0.448l0.52,0.132l2.769,0.542l0.993,0.139l1.424,0.125
	l0.542,0.062l3.142,0.157l3.152-0.033l0.176,0.024l2.764,0.227l1.094,0.119l0.339,0.018l3.645-0.088l4.154-0.368l2.61-0.413
	l1.57-0.367l1.104-0.354l3.405-0.449l2.922-0.61l1.648-0.5l4.131-1.692l2.424-1.311l0.043-0.03l1.484-0.628l1.506-0.872l2.314-1.215
	l1-0.708l2.014-1.834l2.156-2.773l0.131-0.108l0.557-0.702l0.392-0.697l0.938-1.37l1.136-2.945l0.063-0.584l-0.012-2.247l0.02-0.299
	l-0.52-3.04l-0.174-0.426l-0.712-2.033l-0.196-0.437l-0.15-0.222l-1.629-2.455l-0.789-0.919l-2.867-3.162l-3.241-2.829l-2.343-1.925
	l-3.479-2.401l-2.566-1.411l-3.623-1.958l-3.869-1.596l-2.485-0.761l-3.875-1.161l-4.039-0.798l-4.172-0.435l-1.918-0.088
	l-3.992-0.063l-4.043,0.275l-4.056,0.611l-4.035,0.942l-3.98,1.259l-3.89,1.568l-3.769,1.859l-3.612,2.135l-3.427,2.394
	l-3.211,2.631l-2.774,2.659l-0.156,0.161l-1.99,2.506l-0.786,1.265l-0.611,0.97l-0.093,0.207l-0.678,2.37l-0.067,0.568l-0.415,1.605
	l-0.022,0.18l0.05,1.206L257.957,234.849 M180.34,274.449l0.066,0.095l1.094,0.266l0.173,0.086l1.676,0.117l0.652-0.108l2-0.816
	l0.896-0.457l2.158-0.709l1.823-0.772l1.498-0.859l2.793-1.772l0.744-0.57l0.29-0.237l1.568-0.868l1.308-0.657l1.389-0.772
	l1.575-1.038l2.743-1.92l1.189-0.882l0.336-0.222l0.915-0.688l2.199-1.719l1.909-1.551l0.422-0.356l1.258-0.946l0.149-0.118
	l0.174-0.147l1.226-0.921l1.407-1.107l0.932-0.766l0.364-0.266l1.222-0.938l1.157-0.925l1.098-0.92l0.881-0.77l0.177-0.14
	l1.066-0.874l1.049-0.896l1.037-0.928l1.035-0.965l0.096-0.094l1.016-0.887l1.146-1.045l1.182-1.13l1.091-1.087l0.155-0.14
	l0.522-0.483l0.155-0.128l0.783-0.696l1.546-1.438l1.592-1.541l0.1-0.088l1.926-1.717l0.162-0.167l1.851-1.991l1.208-1.388
	l0.895-0.917l0.193-0.21l1.568-2.125l0.762-1.164l0.809-0.796l0.519-0.623l1.803-2.416l0.152-0.184l0.007-0.005l1-2.261l0.162-0.62
	l0.705-1.373l0.129-0.487l-0.296-0.956l-0.462-0.504l-0.121-0.057l-0.072-0.036l-0.261-0.223l-0.594-0.132l-2.084-0.449l-2.7-0.58
	l-4.021-0.467l-4.129-0.094l-2.303,0.001l-3.938,0.258l-3.975,0.601l-3.974,0.936l-1.384,0.426l-3.639,1.166l-3.576,1.457
	l-3.485,1.732l-3.361,1.994l-3.21,2.238l-3.03,2.463l-2.826,2.666l-2.595,2.846l-0.742,0.946l-2.533,3.252l-2.237,3.396
	l-1.921,3.512l-1.58,3.596l-0.848,2.199l-1.311,3.895l-0.92,3.918l-0.435,2.774l-0.544,4.119l-0.111,4.074l0.076,2.735
	L180.34,274.449 M256.015,357.256l4.814-2.027l2.246-1.371l2.596-1.373l3.984-2.934l0.562-0.363l4.241-3.715l1.077-1.25l2.26-2.342
	l0.496-0.559l0.232-0.357l2.131-2.694l1.135-1.31l3.05-4.612l0.146-0.293l2.452-4.5l0.838-2.151l1.227-2.81l1.125-3.86l0.401-1.193
	l0.112-0.572l0.618-4.283l0.072-0.283l0.049-0.396l0.683-4.418l0.045-1.604l0.181-3.14l-0.175-2.483l-0.089-2.14l-0.52-3.011
	l-0.209-1.439l-0.895-3.196l-0.266-1.045l-0.01-0.024l-0.973-2.155l-0.284-0.865l-0.273-0.885l-1.128-2.486l-0.5-1.152l-1.062-1.775
	l-0.917-1.598l-0.706-0.927l-1.589-2.16l-0.017-0.019l-1.722-1.86l-0.816-0.91l-0.807-0.698l-1.567-1.395l-0.416-0.384l-1.146-0.815
	l-1.463-1.071l-0.373-0.282l-1.104-0.638l-1.409-0.836l-0.618-0.383l-0.784-0.359l-1.396-0.664l-1.077-0.53l-0.295-0.102
	l-1.429-0.524l-1.421-0.538l-0.217-0.086l-1.286-0.339l-1.546-0.426l-0.629-0.181l-1.011-0.171l-1.744-0.31l-0.81-0.153
	l-1.067-0.083l-2.036-0.175l-0.566-0.052l-1.648,0.017l-2.113,0.007l-0.331,0.035l-2.665,0.257l-0.838,0.078l-2.084,0.39
	l-1.806,0.333l-1.402,0.39l-2.512,0.688l-0.975,0.361l-1.906,0.697l-1.019,0.345l-0.916,0.406l-0.279,0.123l-2.645,1.248
	l-1.126,0.65l-2.659,1.526l-1.551,1.063l-2.15,1.468l-2.148,1.731l-1.429,1.147l-2.86,2.691l-0.548,0.516l-1.12,1.229l-2.146,2.321
	l-0.453,0.577l-0.167,0.213l-2.224,2.944l-2.466,3.887l-0.317,0.526l-1.938,3.684l-0.401,0.762l-1.992,4.654l-0.314,0.959
	l-1.285,3.861l-0.281,1.195l-0.281,1.146l-0.131,0.599l-0.456,2.104l-0.648,5.107v0.016l-0.184,5.146l0.139,2.022l0.176,3.074
	l0.689,4.062l0.14,0.903l1.338,4.828l0.454,1.071l0.8,2.027l0.62,1.486l1.589,2.752l0.818,1.479l2.876,3.881l0.285,0.289l3.044,3.25
	l1.9,1.502l1.844,1.567l3.856,2.375l0.261,0.176l4.463,2.09l1.709,0.488l3.032,1.031l3.899,0.666l1.058,0.237l5.126,0.33
	l1.098-0.104l4.133-0.151l2.814-0.537l0.486-0.104l1.945-0.287l5.168-1.64L256.015,357.256 M339.142,261.109l-2.463,0.882
	l-1.514,0.654l-1.945,0.801l-0.383,0.231l-0.572,0.271l-3.588,1.996l-1.815,1.17l-1.17,1.017l-1.089,1.06l-1.329,1.2l-1.773,1.799
	l-0.209,0.28l-1.488,2.213l-0.131,0.215l-1.143,1.689l-0.529,0.88l-0.58,0.832l-0.957,1.566l-0.016,0.03l-0.201,0.469l-0.562,1.138
	l-0.664,1.522l-0.561,1.474l-0.432,1.322l-0.048,0.116l-0.471,1.408l-0.397,1.413l-0.328,1.427l-0.228,1.246l-0.049,0.207
	l-0.285,1.514l-0.229,1.58l-0.158,1.665l-0.053,1.075l-0.076,0.714l-0.088,1.418l0.01,0.542l0.152,2.064l0.078,0.604l0.09,1.6v0.154
	l0.125,2.85l0.248,2.855l0.075,0.385l0.531,2.131l0.273,1.352l1.047,4.146l0.223,0.738l1.545,3.446l1.349,2.595l0.729,1.516
	l0.176,0.564l0.047,0.098l3.08,5.752l0.822,1.342l3.234,3.992l2.446,2.611l0.875,0.733l1.646,1.849l3.313,3.221l2.585,1.938
	l4.649,2.871l1.625,0.758l0.162,0.105l5.619,2.92l1.457,0.531l6.617,1.549l0.383,0.104l0.299,0.047l2.346,0.09l4.383,0.72
	l1.759,0.037l4.842-0.49l4.096-1.078l0.965-0.183l1.017-0.297l2.438-1.14l3.082-1.166l3.328-1.99l1.551-1.104l0.14-0.139
	l4.043-3.531l3.516-4.285l0.832-1.432l1.314-2.006l0.721-1.203l2.146-5.082l0.812-2.938l0.715-2.397l0.896-5.521l0.207-4.525
	l0.062-1.24l-0.346-5.78l-0.006-0.074l-0.097-0.562l-1.028-5.441l-0.599-2.098l-1.512-5.131l-2.074-4.894l-1.383-2.611l-2.586-4.575
	l-2.994-4.136l-0.115-0.153l-1.828-2.177l-3.479-3.829l-1.877-1.661l-2.904-2.467l-1.266-0.967l-3.021-2.149l-1.641-1.032
	l-4.402-2.324l-1.526-0.812l-0.404-0.172l-5.226-1.792l-1.477-0.535l-0.156-0.044l-6.35-1.193l-1.17-0.133l-5.346-0.01l-0.392,0.028
	l-0.977,0.022l-4.32,0.584L339.142,261.109 M350.196,220.667l0.553,0.976l0.045,0.162l0.23,0.787l1.502,2.39l0.932,1.058
	l1.104,1.207l0.381,0.604l0.164,0.199l1.244,1.476l0.979,1.127l0.82,0.907l0.293,0.313l0.155,0.153l0.296,0.294l0.688,0.675
	l0.49,0.461l0.141,0.175l0.539,0.652l0.525,0.609l0.522,0.588l0.535,0.581l0.562,0.589l0.602,0.612l0.662,0.65l0.744,0.717
	l0.862,0.81l0.158,0.148l0.99,0.865l1.123,1.199l1.467,1.523l1.58,1.608l0.555,0.495l3.789,3.324l0.316,0.34l0.025,0.024
	l4.508,4.099l4.688,3.635l3.013,1.961l0.87,0.662l0.779,0.766l4.299,3.606l4.304,3.001l3.479,1.939l0.691,0.564l3.705,2.518
	l1.229,0.659l2.232,1.081l1.428,0.42l1.549,1.01l2.039,0.908l0.455,0.153l2.01,0.014l0.683,0.094l0.571-0.167l0.554-0.952
	l0.039-0.305l0.02-0.095l0.162-3.685l-0.053-2.903l-0.341-4.69l-0.883-4.563l-0.61-2.927l-1.408-4.399l-1.148-2.778l-1.899-4.149
	l-2.379-3.899l-1.604-2.44l-2.772-3.547l-2.002-2.039l-3.097-3.142l-3.455-2.815l-2.184-1.439l-3.633-2.368l-3.914-2.013
	l-4.15-1.648l-1.942-0.686l-4.136-1.203l-4.28-0.838l-4.398-0.464l-4.471-0.095l-1.072,0.001l-4.227,0.258l-4.218,0.601
	l-4.045,0.906l-0.156,0.105l-0.657,0.52l-0.004,0.979l0.149,0.242L350.196,220.667 M451.302,326.369l-0.303-2.227l-0.965-4.576
	l-1.472-4.429l-0.812-2.099l-1.938-4.196l-2.393-3.965l-1.244-1.78l-2.768-3.629l-3.152-3.337l-3.506-3.015l-1.434-1.223
	l-3.714-2.592l-3.521-1.979l-1.527-0.666l-1.237,0.105l-0.109,0.104l-1.383,0.467l-1.207,1.353l-0.269,0.715l-0.131,0.465
	l-0.617,1.042l-0.6,1.904l-0.205,0.836l-0.17,0.376l-0.402,1.749l-0.418,2.523l-0.022,0.257l-0.004,0.315l-0.332,1.767l-0.291,2.121
	l-0.168,1.959l-0.062,1.873l0.031,1.854l0.123,1.836l-0.006,0.047l-0.086,1.899l0.004,2l0.104,2.164l0.215,2.414l0.347,2.781
	l0.364,2.344l0.015,0.572l0.026,0.324l0.5,3.996l0.478,3.016l0.188,0.765l0.23,1.562l0.701,3.998l0.646,2.578l0.168,1.211l0.334,2
	l1.351,5.17l1.521,3.987l0.127,0.592l1.377,4.321l1.666,3.613l1.836,2.732l0.06,0.166l1.444,2.627l1.648,1.858l1.52,0.912
	l0.189,0.267l0.635,0.403l0.693,0.291l1.533-0.283l0.887-0.582l0.424-0.403l0.273-0.234l2.264-2.379l0.889-1.131l3.029-3.889
	l2.58-4.121l2.107-4.31l0.672-1.763l1.651-4.549l1.138-4.643l0.608-4.682l0.229-2.148l0.084-4.732L451.302,326.369 M246.1,432.744
	l-0.088-0.432l-1.204-4.638l-0.019-0.301l-1.272-5.883l-0.202-0.521l-2.185-5.146l-2.011-3.358l-0.867-2.22l-2.362-4.104
	l-0.861-1.436l-0.185-0.227l-3.515-5.07l-4.268-4.725l-0.549-0.47l-1.365-1.405l-2.268-2.812l-4.499-4.131l-1.452-0.965l-1.34-1.119
	l-1.888-1.567l-0.487-0.287l-0.921-0.547l-0.625-0.367l-0.461-0.267l-0.359-0.207l-0.294-0.168l-0.251-0.14l-0.219-0.119
	l-0.198-0.106l-0.183-0.097l-0.174-0.09l-0.169-0.088l-0.194-0.094l-0.131-0.084l-0.157-0.102l-0.162-0.103l-0.173-0.104
	l-0.188-0.113l-0.21-0.121l-0.236-0.139l-0.281-0.158l-0.342-0.195l-0.441-0.244l-0.599-0.328l-0.882-0.48l-0.457-0.246
	l-1.988-0.637l-1.424-0.451l-1.238-0.572l-4.38-0.969l-2.511,0.068l-1.206-0.113l-0.436-0.104l-3.654,0.086l-3.423,1.049
	l-0.722,0.396l-2.25,1.351l-0.98,1.047l-1.486,1.184l-1.79,2.488l-0.208,0.324l-1.487,3.901l-0.055,0.237l-0.715,3.152l-0.065,0.379
	l-0.574,4.643l-0.14,4.842l0.323,4.781l0.16,2.318l0.824,4.865l1.307,4.709l0.796,2.465l1.838,4.639l2.319,4.387l1.407,2.379
	l2.836,4.162l3.291,3.812l1.924,2.088l3.745,3.451l4.141,3.014l2.288,1.623l4.49,2.537l2.507,1.07l4.745,2.012l5.008,1.486
	l5.263,0.947l-0.042-0.004l2.336,0.418l3.958,0.135l0.277-0.037l0.675-0.076l2.261-0.197l1.056-0.184l3.992-1.525l0.497-0.314
	l2.503-2.438l0.324-0.25l0.202-0.238l0.191-0.405l2.75-3.551l0.065-0.121l1.24-4.47l0.096-2.332l0.423-2.61L246.1,432.744
	 M428.208,385.99l-0.555-1.908l-1.55-5.285l-0.481-1.166l-1.562-2.83l-0.411-0.443l-1.726-2.213l-2.496-1.965l-2.635-0.987
	l-0.15-0.092l-3.352-0.905l-1.691,0.055l-1.938-0.131l-3.98,0.695l-4.307,0.951l-2.17,0.951l-2.385,1.155l-0.447,0.313l-3.266,1.697
	l-1.285,0.729l-2.482,1.859l-2.676,2.162l-0.49,0.434l-1.07,1.115l-0.489,0.394l-1.105,0.946l-0.918,0.726l-1.758,1.502
	l-1.514,1.416l-1.341,1.379l-1.217,1.388l-1.139,1.432l-0.408,0.568l-0.803,0.83l-1.244,1.426l-1.238,1.565l-1.272,1.767
	l-1.355,2.053l-0.555,0.914l-0.965,1.459l-1.043,1.678l-0.056,0.105l-0.676,0.982l-2.104,3.313l-1.531,2.59l-1.01,2.203
	l-1.679,3.967l-0.366,1.295l-1.253,3.037l-0.555,1.47l-1.203,5.475l-1.062,5.117l-0.195,4.811l0.127,0.838l0.314,3.588l0.063,0.195
	l0.357,3.699l1.285,3.473l1.68,2.359l0.266,0.637l2.019,2.412l0.942,0.652l2.062,1.168l1.703,0.525l1.641,0.653l0.201,0.033
	l2.363,0.416l0.805,0.074l5.096-0.162l5.697-0.74l5.619-1.297l5.477-1.836l5.271-2.362l5.01-2.861l4.693-3.33l4.319-3.762
	l3.906-4.15l3.449-4.49l2.951-4.783l2.43-5.02l0.527-1.289l1.928-5.328l1.354-5.451l0.769-5.515l0.182-5.522l0.045-1.845
	l-0.405-5.545L428.208,385.99 M350.005,385.646l-0.771-2.953l-1.851-4.595l-0.922-1.795l-1.375-1.94l-1.877-3.465l-0.414-0.629
	l-4.518-5.228l-0.609-0.524l-3.734-2.847l-0.862-0.84l-2.076-1.521l-3.744-2.414l-3.037-1.383l-3.16-1.271l-4.354-1.033
	l-0.566-0.185l-1.606-0.574l-3.229-0.67l-3.787-0.641l-0.977-0.021l-3.437,0.021l-0.771-0.039l-2.051-0.045l-1.111,0.125
	l-2.711,0.36l-2.161,0.345l-1.102,0.199l-0.644,0.08l-0.129,0.021l-1.365,0.345l-1.29,0.354l-1.132,0.334l-1.017,0.321l-0.927,0.313
	l-0.86,0.316l-0.812,0.314l-0.325,0.135l-0.456,0.158l-0.77,0.278l-0.767,0.304l-0.778,0.326l-0.799,0.356l-0.831,0.392
	l-0.877,0.438l-0.941,0.498l-1.035,0.571l-0.614,0.355l-0.597,0.295l-0.863,0.443l-0.542,0.354l-1.483,1.049l-1.759,1.312
	l-2.149,1.686l-0.148,0.123l-0.163,0.113l-2.111,2.055l-2.722,2.807l-0.188,0.256l-2.236,3.34l-0.376,0.515l-1.006,1.472
	l-0.915,1.932l-1.084,1.809l-1.015,1.838l-1.765,4.871l-0.348,1.119l-0.662,4.314l-0.295,1.727l-0.057,0.51l0.048,1.146
	l-0.317,5.057l0.128,1.549l0.786,4.984l0.795,2.697l0.661,1.688l0.649,2.223l1.643,3.662l0.045,0.082l1.331,2.474l2.815,4.047
	l1.859,2.196l0.005,0.004l3.276,3.48l2.243,1.951l3.463,2.51l2.466,1.414l2.138,1.301l1.411,0.719l2.627,1.019l3.646,1.498
	l2.556,0.731l3.672,0.834l0.491,0.058l5.762,0.774l5.968,0.115h0.084l3.756-0.455l2.082-0.223l5.689-1.25l5.41-1.861l1.102-0.528
	l4.115-1.875l4.916-2.979l2.662-2.082l0.879-0.742l1.02-0.785l4.156-4.217l3.672-4.855l0.832-1.445l0.256-0.543l1.92-3.567
	l0.693-1.854l1.742-4.142l0.018-0.06l1.297-6.701l0.045-0.612l0.156-1.414l0.017-5.181l-0.302-2.61L350.005,385.646
	 M348.124,468.031l-0.055-0.148l-1.644-1.836l-0.223-0.131l-1.873-2.076l-2.896-1.859l-1.243-0.473l-2.183-0.744l-0.35-0.232
	l-4.275-1.645l-0.838-0.168l-4.07-1.316l-2.594-0.5l-3.272-0.504l-0.607-0.037l-4.219-0.701l-1.779-0.209l-2.404-0.039l-1.811-0.27
	l-3.658-0.387l-1.328-0.039l-3.965,0.055l-3.461,0.213l-1.946,0.223l-1.25-0.043l-0.856,0.019l-2.134,0.103l-2.8,0.254l-2.703,0.365
	l-2.686,0.487l-1.964,0.444l-0.104,0.027l-0.662,0.062l-2.79,0.438l-2.932,0.645l-3.202,0.9l-1.437,0.492l-2.038,0.947l-0.129,0.033
	l-3.679,1.246l-0.27,0.141l-3.287,2.039l-0.388,0.162l-1.063,0.682l-1.999,1.486l-0.345,0.418l-1.938,1.65l-1.009,1.807
	l-0.245,0.508l-0.023,0.275l-0.633,1.725l0.174,2.141l0.934,2.121l0.048,0.146l0.633,0.871l1.207,1.604l3.55,3.938l3.958,3.549
	l1.589,1.185l4.323,3.112l4.655,2.646l4.945,2.148l1.718,0.609l5.117,1.602l5.3,1.057l5.431,0.502l1.502-0.018l5.371-0.07
	l5.385-0.627l5.334-1.184l5.227-1.73l5.062-2.26l4.842-2.766l0.431-0.293l4.411-3.129l4.097-3.553l3.744-4.021l0.004-0.008
	l2.385-2.979l1.004-1.324l0.773-1.234l0.645-2.119l-0.104-0.686l0.17-1.613L348.124,468.031 M273.503,111.108
	c-0.001,3.781-1.976,6.146-2.26,6.469c-0.036-0.018-0.072-0.038-0.11-0.055c-0.793-1.055-8.42-11.092-13.877-14.617
	c2.183,7.008-2.337,7.954-2.337,7.954s-6.164-8.588-12.641-11.042c3.317,2.68,0.998,6.461,0.075,7.713
	c-0.325-0.072-0.646-0.141-0.968-0.209c-2.012-1.944-8.549-7.841-15.744-9.78c5.379,4.501,3.087,7.163,2.186,7.916
	c-0.22-0.012-0.441-0.029-0.659-0.04c-1.585-1.133-8.378-5.614-18.676-7.175c6.052,3.444,5.681,6.413,5.174,7.62
	c-0.454,0.05-0.906,0.105-1.355,0.164c-3.064-1.2-12.288-4.584-17.788-4.167c5.118,2.053,4.846,5.155,4.368,6.618
	c-0.523,0.114-1.045,0.229-1.567,0.344c-3.386-1.255-13.225-4.428-21.077-2.253c1.33,0.732,3.357,2.767,5.539,5.247
	c-6.145,0.84-12.746,1.166-20.352,0.361c4.033,4.554,6.282,9.841,8.009,15.674c-3.997,0.103-7.391-0.062-9.025-0.74
	c1.875,4.882,8.681,10.23,12.054,12.655c0.162,0.666,0.326,1.334,0.497,2.009c-1.845,0.691-5.35,1.42-9.751-0.46
	c4.63,6.716,13.949,14.16,13.949,14.16s-1.375,2.542-8.532,0.967c5.319,5.91,12.711,10.484,15.304,11.996
	c0.178,0.272,0.356,0.545,0.541,0.818c-1.068,0.686-4.223,2.277-8.76,0.806c6.299,5.944,16.257,10.332,19.118,11.521
	c0.199,0.196,0.398,0.396,0.595,0.589c-0.629,0.738-2.863,2.72-8.265,2.081c3.879,3.268,16.193,6.492,19.608,7.341
	c0.266,0.183,0.53,0.362,0.796,0.541c-0.322,0.816-1.642,2.947-6.781,3.623c6.738,2.941,15.919,3.363,20.113,3.39
	c0.831,0.317,1.66,0.608,2.483,0.877c0.03,1.142-0.772,3.179-5.959,5.007c14.852,2.494,33.106-4.422,33.106-4.422l0.034-0.048
	c10.731-3.568,18.529-11.748,21.097-21.942c-18.474-21.53-60.841-44.847-79.236-53.298c20.244,6.054,60.197,22.81,85.986,45.343
	c13.8-6.231,16.696-17.724,13.456-28.702C291.401,140.006,286.951,122.783,273.503,111.108 M441.481,141.314
	c-4.4,1.88-7.906,1.152-9.753,0.46c0.171-0.675,0.337-1.344,0.498-2.009c3.373-2.425,10.179-7.773,12.054-12.655
	c-1.636,0.677-5.027,0.843-9.025,0.74c1.728-5.833,3.978-11.121,8.01-15.674c-7.604,0.805-14.207,0.479-20.352-0.361
	c2.182-2.48,4.209-4.515,5.539-5.247c-7.854-2.175-17.693,0.998-21.078,2.253c-0.521-0.115-1.043-0.23-1.566-0.344
	c-0.479-1.463-0.75-4.564,4.367-6.618c-5.5-0.417-14.723,2.967-17.787,4.167c-0.448-0.058-0.899-0.113-1.354-0.164
	c-0.506-1.207-0.877-4.176,5.174-7.62c-10.297,1.561-17.09,6.042-18.676,7.175c-0.217,0.01-0.439,0.027-0.658,0.04
	c-0.902-0.753-3.193-3.415,2.184-7.916c-7.192,1.939-13.729,7.836-15.741,9.78c-0.322,0.068-0.644,0.137-0.97,0.209
	c-0.924-1.252-3.242-5.034,0.076-7.713c-6.479,2.454-12.641,11.042-12.641,11.042s-4.521-0.945-2.338-7.954
	c-5.457,3.524-13.084,13.562-13.877,14.617c-0.037,0.017-0.074,0.037-0.109,0.055c-0.285-0.323-2.26-2.688-2.26-6.469
	c-13.449,11.675-17.898,28.898-18.369,30.855c-3.24,10.978-0.346,22.471,13.455,28.702c25.789-22.534,65.742-39.29,85.983-45.343
	c-18.395,8.451-60.758,31.769-79.231,53.298c2.565,10.194,10.363,18.374,21.094,21.942l0.035,0.048c0,0,18.256,6.916,33.104,4.422
	c-5.186-1.828-5.987-3.865-5.959-5.007c0.824-0.27,1.652-0.561,2.484-0.877c4.193-0.027,13.375-0.448,20.113-3.39
	c-5.14-0.676-6.461-2.807-6.779-3.623c0.264-0.179,0.527-0.357,0.793-0.541c3.416-0.849,15.73-4.073,19.609-7.341
	c-5.402,0.639-7.633-1.343-8.265-2.081c0.197-0.193,0.396-0.394,0.595-0.589c2.862-1.189,12.819-5.577,19.118-11.521
	c-4.538,1.471-7.69-0.121-8.76-0.806c0.185-0.273,0.361-0.546,0.541-0.818c2.592-1.512,9.984-6.086,15.305-11.996
	c-7.155,1.575-8.532-0.967-8.532-0.967S436.851,148.03,441.481,141.314"/>
</svg>
