<!--?xml version="1.0" encoding="utf-8"?-->
<!-- Generator: Adobe Illustrator 15.0.0, SVG Export Plug-In . SVG Version: 6.00 Build 0)  -->

<svg xmlns="http://www.w3.org/2000/svg" xmlns:xlink="http://www.w3.org/1999/xlink" width="512px" height="512px" viewBox="-50 -60 567 567">
<g>
	<path d="M451.878,215.896c-25.196,0.229-50.377,0.358-75.573,0.571c4.233,43.372-10.049,88.179-43.26,121.339
			c-58.959,58.944-154.484,58.944-213.411,0c-58.943-58.894-58.943-154.436,0-213.379c50.278-50.312,127.17-57.461,185.283-21.907
			c-19.691,19.463-42.868,42.51-42.868,42.51c-16.679,17.72,0.277,29.463,11.516,29.529h147.237c5.636,0,10.162-4.561,10.179-10.196
			V18.332c0.685-13.763-14.414-26.548-29.283-11.678c0,0-24.937,24.675-42.251,41.858C270.959-16.164,146.23-8.835,66.293,71.086
			c-88.391,88.391-88.391,231.719,0,320.094c88.374,88.358,231.703,88.358,320.078,0
			C434.466,343.117,456.145,278.766,451.878,215.896z" id="path-0" style="position: relative;"></path>
</g>
</svg>
