<?xml version="1.0" encoding="utf-8"?>
<!-- Generator: Adobe Illustrator 18.1.1, SVG Export Plug-In . SVG Version: 6.00 Build 0)  -->
<svg version="1.2" baseProfile="tiny" id="Layer_1" xmlns="http://www.w3.org/2000/svg" xmlns:xlink="http://www.w3.org/1999/xlink"
	 x="0px" y="0px" viewBox="0 0 85.4 85.4" xml:space="preserve">
<g id="Layer_2">
	<g>
		<path fill="none" stroke="#010101" stroke-miterlimit="10" d="M42.6,60.2c8.3,8.9,24.9,20.4,37.4,13.4c8.9-5,3.9-20.4-1.2-27.2
			c-6.9-9.3-12.1-13.2-15.1-15c-0.5-0.4-1.4-0.9-0.3-0.9c1.1,0,6.3,0.6,6.3-5.3c0-5.9-7-13.8-14.1-17.2c-7.1-3.3-12.9-1.2-11.8,4.5
			c1.1,5.7,6.1,10.6,8.4,12.5c0.5,0.4,1,1.1-0.2,0.7c-1.3-0.4-7.5-1.8-11.8-0.4c-4.3,1.4-5.8,3.8-6.3,4.5c0,0.3-0.5,0.8-0.9-0.3
			c-0.4-1.1-2.9-8.6-12.2-14C15.2,12.4,7,10,2.2,14.6C-2.6,19.2,3.9,29.7,8,32.9c4.1,3.2,13.8,10.4,22.3,5.9
			c0.5-0.2,1.4-1.2,1.6,0.5C32.1,41,33.1,49.8,42.6,60.2z"/>
		<path fill="none" stroke="#010101" stroke-miterlimit="10" d="M29.6,39.1c-0.3,4-2.3,17,11.6,30.3c13.9,13.3,33.7,11.1,40.6,2.8"
			/>
		<path fill="none" stroke="#010101" stroke-miterlimit="10" d="M35.7,63.2c-1.6,1.4-5.6,5.5-6,5.9c-0.4,0.4-2.8,2.1-0.7,3.4
			c2.1,1.3,5.5,2.8,12.7,2.7c1.5,0,4.4-0.3,6-0.8"/>
		<path fill="none" stroke="#010101" stroke-miterlimit="10" d="M29.6,69.1c1,1.2,3.4,4.3,15.3,3.4"/>
		<path fill="none" stroke="#010101" stroke-miterlimit="10" d="M40.1,27.1c-4.8,1.7-14.9,14,7.3,36.1c6.6,5.8,22.7,15.9,32.4,8
			c9.7-7.9-2.6-24.9-4.6-27.4c-1-1.3-5.7-7.3-12.8-11.8C55.6,27.5,46.2,24.8,40.1,27.1z"/>
		<path fill="none" stroke="#010101" stroke-miterlimit="10" d="M42.9,32.8c-3.9,1.4-12,11.3,5.8,29c5.3,4.6,18.2,12.8,26,6.4
			c7.8-6.4-2.1-20-3.7-22c-0.8-1-4.6-5.8-10.3-9.5C55.4,33.2,47.8,31,42.9,32.8z"/>
		<path fill="none" stroke="#010101" stroke-miterlimit="10" d="M7.3,14.6c-3.2,1-8.9,6.5,3.7,18c3.6,2.9,12.3,7.9,17.6,4
			c5.3-4-0.8-12.4-1.9-13.6c-0.6-0.6-3.6-3.7-7.5-6C15.5,14.8,10.6,13.5,7.3,14.6z"/>
		<path fill="none" stroke="#010101" stroke-miterlimit="10" d="M48.6,8.7c-3,0.7-5.5,5.5,3.7,14.4c2.6,2.2,10,7.2,13.8,4.2
			c3.8-3.1-1.4-10-2.3-10.9c-0.7-0.8-3-3.3-5.8-5.1C55.3,9.5,51,7.8,48.6,8.7z"/>
	</g>
</g>
</svg>
