<?xml version="1.0" encoding="utf-8"?>
<!-- Generator: Adobe Illustrator 18.1.1, SVG Export Plug-In . SVG Version: 6.00 Build 0)  -->
<svg version="1.2" baseProfile="tiny" id="Layer_1" xmlns="http://www.w3.org/2000/svg" xmlns:xlink="http://www.w3.org/1999/xlink"
	 x="0px" y="0px" viewBox="0 0 55.2 55.2" xml:space="preserve">
<path fill="none" stroke="#000000" stroke-miterlimit="10" d="M41.6,3.5c-3.9-2.5-10-3-14-3c-3.9,0-10.1,0.6-14,3
	C9.8,6,14.5,13.8,15.9,17.1c2.7,7.9,4,22.2,4,22.2l1.8,2.3v8.8c0,1,1.4,1.8,2.5,2c0.2,0.4,0.8,1.2,1.4,2c0.4,0.2,1.2,0.2,2,0.2
	c0.8,0,1.5-0.1,2-0.2c0.6-0.8,1.2-1.5,1.4-2c1.1-0.3,2.5-1,2.5-2v-8.8l1.8-2.3c0,0,1.3-14.3,4-22.2C40.7,13.8,45.4,6,41.6,3.5z
	 M21.7,41.7h11.8 M15.5,16.3c3.1,1.6,18.1,2.3,24.2-0.3 M34.2,43.4l-6.8,0.9l-0.1,0L21,45.1 M34.3,45.7l-6.8,0.9l-0.1,0l-6.4,0.8
	 M34.2,47.9l-6.8,0.8l-0.1,0L21,49.5"/>
</svg>
