<?xml version="1.0" encoding="utf-8"?>
<!-- Generator: Adobe Illustrator 18.1.1, SVG Export Plug-In . SVG Version: 6.00 Build 0)  -->
<svg version="1.2" baseProfile="tiny" id="Layer_1" xmlns="http://www.w3.org/2000/svg" xmlns:xlink="http://www.w3.org/1999/xlink"
	 x="0px" y="0px" viewBox="0 0 56.1 56.1" xml:space="preserve">
<path fill="none" stroke="#000000" stroke-miterlimit="10" d="M22.7,42.5l-1.8-2.3l-0.8-8.4c-1-5.1-7.2-6.9-7.2-18
	c0-9.7,8.3-13.3,15.7-13.3c7.4,0,14.6,3.6,14.6,13.3c0,10.9-4.6,11.1-6.1,18c-0.3,3.6-0.8,8.4-0.8,8.4l-1.8,2.3H22.7z"/>
<path fill="none" stroke="#000000" stroke-miterlimit="10" d="M13.9,20.7c6.5,0.9,22.2,0.9,28.4,0"/>
<path fill="none" stroke="#000000" stroke-miterlimit="10" d="M35,51.4c0,0.3-0.3,0.5-0.8,0.5h-1.1c-0.1,0.8-0.1,1.4-0.2,1.4
	c-0.2,0.5-1.8,1.2-2.4,2c-0.4,0.2-1.2,0.2-2,0.2c-0.8,0-1.5-0.1-2-0.2c-0.6-0.8-2.2-1.5-2.4-2c-0.1,0-0.1-0.6-0.2-1.4H23
	c-0.4,0-0.8-0.2-0.8-0.5c0-0.3,0.3-0.5,0.8-0.5h1c-0.1-1.3-0.2-2.7-0.3-2.7c-0.9-0.4-0.9-1-0.9-1.8v-3.8h11.8v3.8c0,0.9,0,1.5-1,1.9
	c-0.1,0-0.2,1.4-0.3,2.7h1C34.7,50.9,35,51.1,35,51.4z"/>
</svg>
