<?xml version="1.0" encoding="utf-8"?>
<!-- Generator: Adobe Illustrator 18.1.1, SVG Export Plug-In . SVG Version: 6.00 Build 0)  -->
<svg version="1.2" baseProfile="tiny" id="Layer_1" xmlns="http://www.w3.org/2000/svg" xmlns:xlink="http://www.w3.org/1999/xlink"
	 x="0px" y="0px" viewBox="0 0 56.1 56.1" xml:space="preserve">
<path fill="none" stroke="#000000" stroke-miterlimit="10" d="M43.2,13.8c0-9.7-7.2-13.3-14.6-13.3c-7.4,0-15.7,3.6-15.7,13.3
	c0,11.1,6.2,12.9,7.2,18l0.8,8.4l1.8,2.3v8.8c0,1,1.4,1.8,2.5,2c0.2,0.4,0.8,1.2,1.4,2c0.4,0.2,1.2,0.2,2,0.2c0.8,0,1.5-0.1,2-0.2
	c0.6-0.8,1.2-1.5,1.4-2c1.1-0.3,2.5-1,2.5-2v-8.8l1.8-2.3c0,0,0.5-4.8,0.8-8.4C38.6,24.9,43.2,24.7,43.2,13.8z"/>
<line fill="none" stroke="#000000" stroke-miterlimit="10" x1="22.7" y1="42.5" x2="34.5" y2="42.5"/>
<path fill="none" stroke="#000000" stroke-miterlimit="10" d="M13.9,20.7c6.5,0.9,22.2,0.9,28.4,0"/>
<polyline fill="none" stroke="#000000" stroke-miterlimit="10" points="35.1,44.3 28.4,45.2 28.3,45.2 22,46 "/>
<polyline fill="none" stroke="#000000" stroke-miterlimit="10" points="35.2,46.6 28.5,47.4 28.4,47.4 22.1,48.2 "/>
<polyline fill="none" stroke="#000000" stroke-miterlimit="10" points="35.1,48.8 28.4,49.6 28.3,49.7 22,50.4 "/>
</svg>
