<?xml version="1.0" encoding="utf-8"?>
<!-- Generator: Adobe Illustrator 18.1.1, SVG Export Plug-In . SVG Version: 6.00 Build 0)  -->
<svg version="1.2" baseProfile="tiny" id="Layer_1" xmlns="http://www.w3.org/2000/svg" xmlns:xlink="http://www.w3.org/1999/xlink"
	 x="0px" y="0px" viewBox="0 0 55.2 55.2" xml:space="preserve">
<path fill="none" stroke="#000000" stroke-miterlimit="10" d="M41.6,3.5c-3.9-2.5-10-3-14-3s-10.1,0.6-14,3
	c-3.6,2.3,0.3,9.2,1.9,12.8c0.1,0.3,0.2,0.6,0.3,0.8c2.7,7.9,4,22.2,4,22.2l1.8,2.3h11.8l1.8-2.3c0,0,1.3-14.3,4-22.2
	c0.1-0.3,0.3-0.7,0.5-1C41.5,12.4,45.1,5.8,41.6,3.5z M15.5,16.3c3.1,1.6,18.1,2.3,24.2-0.3"/>
<path fill="none" stroke="#000000" stroke-miterlimit="10" d="M34,50.5c0,0.3-0.3,0.5-0.8,0.5h-1.1c-0.1,0.8-0.1,1.4-0.2,1.4
	c-0.2,0.5-1.8,1.2-2.4,2c-0.4,0.2-1.2,0.2-2,0.2c-0.8,0-1.5-0.1-2-0.2c-0.6-0.8-2.2-1.5-2.4-2c-0.1,0-0.1-0.6-0.2-1.4h-1
	c-0.4,0-0.8-0.2-0.8-0.5c0-0.3,0.3-0.5,0.8-0.5h1c-0.1-1.3-0.2-2.7-0.3-2.7c-0.9-0.4-0.9-1-0.9-1.8v-3.8h11.8v3.8c0,0.9,0,1.5-1,1.9
	c-0.1,0-0.2,1.4-0.3,2.7h1C33.7,50,34,50.2,34,50.5z"/>
</svg>
